<svg xmlns="http://www.w3.org/2000/svg" width="237" height="220" viewBox="0 0 237 220" fill="none">
  <path fill-rule="evenodd" clip-rule="evenodd"
    d="M54.8321 120.745C55.1193 122.132 54.7981 123.579 54.2727 124.894C54.4043 125.019 54.5359 125.144 54.6676 125.27C57.2961 123.223 59.9656 121.135 61.8768 118.406C62.6819 117.257 61.7307 115.579 60.4413 115.025C59.1518 114.471 57.6857 114.642 56.2836 114.583C54.5965 114.511 52.9252 114.087 51.4085 113.344C49.2064 112.267 47.1857 110.489 44.7343 110.452C44.4638 110.448 44.174 110.473 43.9614 110.641C43.4428 111.049 43.7596 111.88 44.149 112.413C46.0816 115.057 48.9787 116.98 52.1661 117.734C53.5438 118.06 54.5449 119.359 54.8321 120.745Z"
    fill="#35D4DD" />
  <path fill-rule="evenodd" clip-rule="evenodd"
    d="M97.1185 161.133L62.2717 168.91C55.1495 170.5 48.0872 166.015 46.4977 158.892C45.7315 155.46 46.3657 151.863 48.2597 148.899L67.4862 118.814C73.4051 109.552 75.387 98.3121 72.9927 87.5843L65.2156 52.7374C63.626 45.6152 68.1112 38.5529 75.2334 36.9633C78.6663 36.1972 82.2629 36.8314 85.2267 38.7254L115.312 57.9519C124.574 63.8709 135.814 65.8527 146.541 63.4585L181.388 55.6813C188.51 54.0918 195.573 58.5769 197.162 65.6991C197.928 69.132 197.294 72.7287 195.4 75.6925L176.174 105.778C170.255 115.04 168.273 126.28 170.667 137.007L178.444 171.854C180.034 178.976 175.549 186.039 168.426 187.628C164.994 188.394 161.397 187.76 158.433 185.866L128.348 166.64C119.086 160.721 107.846 158.739 97.1185 161.133Z"
    fill="#35D4DD" />
  <path
    d="M219.681 147.568C219.681 147.568 63.5143 147.65 1.68452 147.568C-3.16848 136.988 2.93674 122.852 13.9657 119.131C10.5141 123.069 7.06247 127.006 3.61086 130.944C9.67514 130.883 219.681 130.944 219.681 130.944V147.568Z"
    fill="white" />
  <path fill-rule="evenodd" clip-rule="evenodd"
    d="M169.313 147.59C91.7737 147.62 35.8974 147.613 1.68443 147.567C-3.16857 136.988 115.825 141.443 160.947 141.443C206.069 141.443 185.194 147.584 169.313 147.59Z"
    fill="#E7EAEE" />
  <path fill-rule="evenodd" clip-rule="evenodd"
    d="M137.021 26.2827C137.572 25.6543 138.66 25.6079 139.262 26.187C137.316 22.3314 131.621 21.1756 130.397 17.0335C128.831 11.7311 126.52 6.64906 123.554 1.98291C122.32 6.57047 119.963 10.8515 116.745 14.3469C115.908 14.3506 115.071 14.3544 114.234 14.3582C112.333 14.3667 110.414 14.3771 108.557 14.7859C105.216 15.5214 102.222 17.5139 98.8366 18.0096C99.0875 17.6954 99.3383 17.3812 99.5891 17.067C99.5193 16.7427 99.0494 16.5944 98.8061 16.8198C98.3774 15.1143 96.9962 13.775 95.4293 12.9767C93.8624 12.1783 91.5519 10.6924 86.9275 11.0832C92.5383 17.3642 90.8007 43.5125 92.1811 48.468C92.6518 48.5936 93.0122 48.079 93.3184 47.7C93.6246 47.321 94.3395 47.0882 94.5048 47.5466C95.6543 50.7325 95.8176 55.635 99.3406 57.5332C100.02 57.8996 100.425 57.2152 100.372 56.8818C100.305 56.4559 100.816 56.1278 101.243 56.1925C101.669 56.2572 102.01 56.566 102.342 56.8405C107.946 61.4675 117.122 59.0824 122.732 63.7015C123.841 64.6142 124.818 65.8037 126.201 66.1879C127.027 66.4171 127.907 66.3268 128.75 66.1756C133.773 65.2755 138.244 62.2956 141.732 58.5719C145.22 54.8481 147.825 50.3956 150.249 45.9063C148.015 44.6412 145.667 43.2621 144.453 40.9997C143.497 39.2171 142.909 36.6618 140.897 36.4439C141.535 38.5158 142.173 40.5877 142.811 42.6596C143.045 43.4182 143.281 44.2094 143.158 44.9936C143.034 45.7777 142.435 46.548 141.642 46.5878C140.566 46.6418 139.808 45.4241 138.74 45.2855C138.538 49.2929 136.999 53.2214 134.426 56.3002C133.533 57.3685 131.816 58.3386 130.91 57.2814C132.285 55.0595 133.66 52.8376 135.036 50.6157C135.893 49.231 136.772 47.7823 136.929 46.1614C137.087 44.5405 136.283 42.7018 134.724 42.2292C134.655 41.8007 135.107 41.4326 135.541 41.4198C135.975 41.407 136.375 41.6368 136.747 41.8591C138.135 42.6866 139.522 43.5141 140.909 44.3416C140.467 41.0519 139.562 37.8247 138.229 34.7846C139.52 34.6623 140.84 34.8596 142.04 35.354C141.116 32.6833 139.424 30.2835 137.218 28.5176C136.565 27.9953 136.47 26.911 137.021 26.2827Z"
    fill="white" />
  <path fill-rule="evenodd" clip-rule="evenodd"
    d="M109.315 19.1927C110.458 19.9492 111.359 21.0647 111.859 22.3409C112.015 22.7378 112.457 22.9293 112.755 23.234C113.053 23.5387 113.102 24.1901 112.684 24.2752C112.502 24.3124 112.322 24.2118 112.162 24.1162C109.6 22.5861 106.484 21.3506 103.688 22.3957C104.147 22.6305 104.38 23.233 104.196 23.7155C104.767 23.7361 105.299 23.9927 105.811 24.2442C106.263 24.4658 106.714 24.6873 107.166 24.9089C107.118 25.0422 107.071 25.1755 107.024 25.3087C104.983 24.2694 102.49 24.1614 100.366 25.0202C101.072 25.1274 101.791 25.147 102.501 25.0784C103.537 25.6005 104.574 26.1227 105.61 26.6448C105.84 26.761 106.083 26.8887 106.213 27.1119C106.342 27.335 106.293 27.681 106.052 27.773C104.18 26.122 101.532 25.392 99.0785 25.8505C98.7922 25.904 98.5963 25.5047 98.7178 25.2399C98.8394 24.9752 99.1307 24.8394 99.4017 24.7327C100.762 24.1972 102.196 23.8508 103.651 23.7066C102.923 23.0321 102.08 22.4822 101.17 22.0878C101.02 21.5751 101.76 21.0836 102.174 21.4205C105.325 20.803 108.699 21.4157 111.431 23.1012C111.454 22.5653 111.057 22.1146 110.685 21.728C109.522 20.5195 108.36 19.311 107.197 18.1025C109.233 18.3605 111.228 18.9336 113.09 19.7953C113.512 19.9901 113.928 20.2006 114.309 20.4647C115.746 21.4593 116.601 23.2385 116.48 24.9817C115.609 23.1422 114.232 21.5459 112.54 20.4159C111.572 19.77 110.475 19.2671 109.315 19.1927V19.1927Z"
    fill="#E7EAEE" />
  <path fill-rule="evenodd" clip-rule="evenodd"
    d="M35.3184 106.136C32.3707 108.782 32.628 113.464 33.692 117.279C35.0608 122.188 37.3755 126.831 40.4717 130.878L3.61061 131.248L13.9654 119.435C2.93649 123.156 -3.16872 137.292 1.68428 147.872C63.5141 147.954 125.344 147.828 187.173 147.492C175.896 155.114 164.963 164.36 159.723 176.922C154.483 189.484 156.653 206 167.793 213.82C171.942 216.733 176.925 218.226 181.906 219.169C187.043 220.142 193.262 220.183 196.433 216.026C198.284 213.599 197.399 209.79 196.524 206.023C195.913 203.395 195.307 200.787 195.638 198.684C196.761 191.55 201.564 187.932 207.044 183.804C208.195 182.937 209.376 182.047 210.559 181.097C220.661 172.99 232.242 162.739 235.19 150.125C237.883 138.604 234.919 127.175 227.217 118.193C224.444 114.959 221.035 112.016 217.609 109.058C213.005 105.082 208.37 101.08 205.205 96.31C203.272 93.3971 202.594 90.2831 201.883 87.0154C201.628 85.8426 201.368 84.6499 201.045 83.4397C196.893 67.9005 182.086 59.9108 166.84 51.6838L166.839 51.6831C164.908 50.6414 162.971 49.5958 161.047 48.5306C152.224 43.6456 143.319 37.3926 140.485 27.6044C142.048 27.6653 142.627 25.317 141.727 24.0385C141.057 23.0878 140 22.5528 138.945 22.0192C138.581 21.8352 138.218 21.6514 137.871 21.4508C134.649 19.5884 132.802 15.7889 130.911 11.8979C128.069 6.05216 125.127 0 117.273 0C116.977 1.98332 117.283 3.75023 117.57 5.4057C118.014 7.96411 118.411 10.2564 116.467 12.6699C110.901 12.0525 105.146 13.2698 100.307 16.0883C97.5086 10.7763 90.4125 8.5072 84.6603 10.227C85.3886 11.1438 85.8205 11.6037 86.1786 11.9849L86.1787 11.9849L86.1787 11.985C86.9352 12.7903 87.3619 13.2446 89.5566 16.9145C92.7901 22.3216 90.7415 42.1997 90.2298 45.3425C89.7181 48.4853 92.1396 50.7188 94.3545 49.1668C93.2756 53.8251 97.1627 58.2705 101.942 58.4045C103.575 58.6957 104.589 59.4854 105.548 60.2317C106.144 60.6959 106.719 61.1434 107.408 61.4436C92.231 72.2991 75.4301 80.8796 57.7383 86.8103L57.4271 86.9145C54.1168 88.0224 50.6565 89.1805 48.3127 91.7529C45.8952 94.4061 45.3276 99.1159 48.1407 101.345C46.4231 102.903 44.0724 103.326 41.7211 103.75C39.3793 104.172 37.0369 104.594 35.3184 106.136ZM192.099 127.145C189.36 129.733 183.998 129.868 180.23 129.853L131.362 129.653C129.95 127.777 130.823 124.894 132.647 123.416C134.471 121.937 136.926 121.539 139.266 121.354C146.82 120.756 154.502 121.841 161.595 124.508C163.586 124.862 165.098 122.35 164.617 120.385C164.136 118.42 162.463 117.015 160.907 115.723C155.887 111.552 150.964 106.855 148.607 100.769C146.164 94.4567 146.873 87.0104 150.464 81.2729C144.435 86.2813 143.168 95.4877 145.876 102.843C148.583 110.198 154.529 115.92 160.971 120.383C157.453 121.105 153.8 120.301 150.184 119.506C145.803 118.542 141.476 117.59 137.508 119.378L136.689 97.0582L134.568 116.622C134.411 118.077 133.953 119.876 132.515 120.147C128.613 120.881 126.299 125.992 128.322 129.409C126.578 130.586 123.918 130.059 122.754 128.307C121.589 126.555 122.135 123.898 123.895 122.746C128.166 119.953 128.504 113.935 128.388 108.834L127.586 73.6115C127.566 72.7612 127.759 71.6434 128.601 71.5264C140.931 69.8133 151.893 60.5489 155.638 48.6772C166.566 53.5721 177.494 59.2161 186.312 66.9889C206.49 84.7767 200.955 99.5673 199.507 103.436C199.254 104.114 199.126 104.457 199.283 104.422C200.289 104.197 200.766 103.064 201.045 102.071C201.696 99.7525 202.12 97.3701 202.309 94.9691C205.639 101.156 210.941 105.856 216.254 110.566L216.254 110.566C221.11 114.871 225.974 119.184 229.35 124.646C234.556 133.07 235.646 143.912 232.221 153.204C228.174 164.18 218.874 171.858 209.701 179.431C207.496 181.251 205.3 183.065 203.185 184.917C198.758 188.793 194.305 193.596 194.162 199.478C194.124 201.054 194.405 202.607 194.687 204.163C194.886 205.263 195.086 206.364 195.173 207.475C195.383 210.158 194.721 213.21 192.449 214.652C191.491 215.26 190.352 215.511 189.229 215.673C177.586 217.354 163.323 209.475 160.002 198.19C156.743 187.116 162.464 173.454 169.98 164.692C174.65 159.249 180.692 155.36 186.754 151.457C190.45 149.078 194.153 146.694 197.558 143.95C200.748 141.379 203.898 138.607 205.917 135.042C207.936 131.476 208.661 126.943 206.848 123.269C205.362 120.257 202.432 118.166 199.56 116.116C195.949 113.538 192.427 111.024 191.978 106.825C192.033 108.711 192.829 110.825 193.619 112.919C194.307 114.746 194.99 116.558 195.172 118.193C195.562 121.705 194.667 124.718 192.099 127.145ZM198.041 119.944C202.947 119.998 205.828 126.208 204.448 130.916C203.068 135.623 199.015 138.974 195.172 142.023C193.244 143.552 191.115 145.157 188.653 145.175L3.07749 146.563L2.2644 132.167L38.0553 132.133C42.6847 132.129 47.9338 132.394 50.9492 135.906C52.0457 137.184 53.9984 135.793 55.3362 134.771C58.5055 132.35 62.8089 132.232 66.7969 132.216L197.738 131.685C199.142 131.679 201.032 131.207 200.986 129.804L192.181 129.473C195.343 127.296 197.525 123.748 198.041 119.944ZM61.8609 130.573C63.8251 125.829 65.3153 120.888 66.3021 115.85C66.5792 114.435 66.8175 112.985 66.6291 111.556C66.0638 107.265 61.9897 104.441 58.2467 102.269C59.8444 102.237 61.207 101.108 62.2325 99.8821C62.5179 99.541 62.7904 99.1862 63.0629 98.8314C63.7695 97.9114 64.4761 96.9915 65.4072 96.311C67.3174 94.9151 67.6232 94.89 71.5692 94.5665C71.9755 94.5332 72.4204 94.4967 72.9096 94.4552C76.3796 94.1612 84.7713 90.9995 90.899 88.6908L90.8995 88.6906L90.8999 88.6904L90.9 88.6904C94.026 87.5126 96.5626 86.5569 97.5558 86.3173C111.147 83.0377 120.567 87.3314 122.689 89.6456C123.847 90.9086 124.131 92.7197 124.363 94.4173C125.41 102.054 126.457 109.811 125.354 117.44C125.149 118.864 124.768 120.434 123.561 121.217C122.35 122.001 121.209 122.895 120.158 123.883C118.472 125.467 116.957 128.039 118.266 129.946L61.8609 130.573ZM139.221 25.6228C138.618 25.0437 137.531 25.0902 136.979 25.7185C136.428 26.3468 136.523 27.4311 137.176 27.9535C139.382 29.7194 141.075 32.1192 141.998 34.7899C140.799 34.2954 139.479 34.0981 138.187 34.2204C139.52 37.2605 140.425 40.4877 140.868 43.7775L136.706 41.295C136.333 41.0726 135.933 40.8429 135.5 40.8557C135.066 40.8685 134.613 41.2365 134.683 41.6651C136.241 42.1377 137.045 43.9763 136.888 45.5972C136.731 47.2181 135.851 48.6669 134.994 50.0516L130.868 56.7173C131.774 57.7745 133.491 56.8044 134.384 55.736C136.957 52.6572 138.496 48.7287 138.698 44.7213C139.195 44.7857 139.624 45.0829 140.049 45.3773C140.539 45.7168 141.024 46.0525 141.6 46.0236C142.393 45.9838 142.993 45.2135 143.116 44.4294C143.239 43.6453 143.003 42.8541 142.77 42.0954L140.856 35.8798C142.416 36.0488 143.12 37.6243 143.803 39.1545L143.803 39.1547L143.803 39.1549C144.001 39.5972 144.197 40.0358 144.411 40.4355C145.625 42.6979 147.974 44.077 150.208 45.3421C147.783 49.8315 145.179 54.284 141.691 58.0077C138.203 61.7314 133.731 64.7113 128.709 65.6114C127.865 65.7626 126.986 65.853 126.16 65.6237C125.125 65.3364 124.318 64.599 123.514 63.8637C123.242 63.6156 122.971 63.3676 122.691 63.1373C119.887 60.8292 116.193 60.27 112.5 59.7108C108.802 59.151 105.104 58.5912 102.3 56.2763L102.221 56.2101C101.913 55.9541 101.593 55.6879 101.201 55.6283C100.775 55.5636 100.263 55.8917 100.331 56.3176C100.383 56.6511 99.9789 57.3354 99.299 56.9691C96.6775 55.5565 95.9163 52.4805 95.2247 49.6861C94.9869 48.7252 94.7574 47.7976 94.4633 46.9824C94.2979 46.5241 93.583 46.7569 93.2768 47.1359C93.2523 47.1662 93.2275 47.1973 93.2023 47.229C92.9123 47.593 92.5726 48.0194 92.1395 47.9038C91.6225 46.0028 91.8027 43.8541 91.977 41.7752V41.7751C92.048 40.9287 92.118 40.0939 92.1395 39.2921C92.1415 39.2195 92.1639 39.0005 92.1991 38.6569C92.5995 34.7437 94.6523 14.6814 86.9273 11.0855C88.7641 10.7235 91.7281 11.0585 94.3545 12.6695C97.0116 14.2993 98.9212 17.2875 98.7951 17.4455C100.63 17.1767 102.351 16.468 104.074 15.7581C105.529 15.1587 106.986 14.5585 108.516 14.2218C110.373 13.813 112.291 13.8026 114.193 13.794L116.704 13.7827C119.409 10.8437 119.304 7.62418 119.183 3.8906L119.183 3.89018C119.16 3.1835 119.136 2.45842 119.131 1.71333C123.82 2.32911 128.789 11.1669 130.355 16.4693C131.01 18.684 132.942 20.045 134.897 21.4214C136.598 22.6192 138.315 23.8287 139.221 25.6228ZM59.3093 88.1444L59.3101 88.1442C59.8468 88.0079 60.3803 87.8725 60.9064 87.7333C68.9604 85.6023 76.4777 81.852 83.9296 78.1267C92.8081 73.6883 101.839 69.1431 108.962 62.2299C109.513 61.6956 110.386 61.7326 111.147 61.8307C113.96 62.1934 116.728 62.9116 119.363 63.9629C120.743 64.5138 122.296 65.4598 122.306 66.9463C122.309 67.4697 122.108 67.9701 121.911 68.4547L120.584 71.706C120.018 73.0932 119.442 74.532 119.491 76.0293C119.54 77.5266 120.39 79.1071 121.831 79.5184C123.272 79.9297 125.051 78.5897 124.679 77.1385C124.041 74.6536 123.605 72.1171 123.376 69.5619C126.183 75.1205 125.215 81.7526 124.18 87.8929C120.465 85.9357 116.576 84.3084 112.575 83.0366C111.2 82.5998 109.66 82.2148 108.361 82.8426C105.182 84.3796 99.1988 84.7891 98.6096 84.3761C98.0204 83.963 97.2144 84.1622 96.5355 84.4008C95.4422 84.7851 93.3585 85.5974 90.8692 86.5679C84.7611 88.9492 76.2107 92.2826 73.8567 92.5808C73.2374 92.6592 72.6147 92.7173 71.9921 92.7754L71.9917 92.7754L71.9913 92.7755L71.9909 92.7755L71.9904 92.7756C70.6431 92.9013 69.2964 93.0269 67.9869 93.3582C66.0717 93.8426 64.1838 94.8467 63.1701 96.5423C62.4128 96.1258 61.9401 95.3892 61.4648 94.6486C61.2353 94.2912 61.0053 93.9328 60.7424 93.609C59.9347 92.6142 58.239 92.0002 57.4646 93.0211C56.7854 90.6976 53.346 89.8007 51.6186 91.4965C51.3516 91.7586 51.1288 92.0606 50.9062 92.3626C50.6746 92.6765 50.4432 92.9903 50.1621 93.2592C49.6106 93.7866 48.7279 94.1116 48.088 93.6958C50.7032 90.3294 55.1053 89.2117 59.3093 88.1444ZM50.7852 130.339C48.8121 131.048 46.6351 130.357 44.6777 129.605C42.8274 128.894 40.8959 128.046 39.7718 126.413C38.4191 124.448 38.5649 121.856 38.7642 119.478L39.5992 109.521C38.361 110.562 37.4515 111.989 37.0301 113.551C36.0295 111.344 37.5179 108.395 39.8882 107.889C38.8868 107.06 37.2385 107.604 36.5317 108.695C35.8249 109.787 35.8409 111.192 36.0476 112.476C36.1033 112.822 36.1712 113.168 36.2391 113.514C36.4228 114.45 36.6066 115.386 36.55 116.334C35.0622 114.009 34.7787 110.956 35.8127 108.397C36.281 107.238 37.111 106.104 38.3249 105.806C39.5387 105.507 41.041 106.499 40.8399 107.733C40.3791 110.56 41.6975 113.462 43.7194 115.492C45.7412 117.522 48.3907 118.8 51.065 119.827C52.0492 120.205 53.273 121.071 52.7931 122.01C52.2919 122.99 51.9462 124.099 52.1184 125.187C52.2905 126.275 53.0872 127.314 54.1722 127.502C55.5097 127.733 56.6999 126.697 57.6614 125.739L63.3418 120.079C62.5848 122.183 61.6969 124.239 60.6847 126.232C59.9914 127.597 59.1984 128.979 57.9451 129.859C56.6917 130.738 54.8568 130.967 53.6712 129.998C53.0106 129.458 52.1093 129.817 51.2704 130.151C51.1055 130.217 50.943 130.282 50.7852 130.339ZM50.2229 110.534C49.693 110.183 49.1626 109.831 48.6131 109.521C46.9108 108.561 44.65 108.044 43.0872 109.218C42.5863 107.606 43.5766 105.874 44.8683 104.787C47.1534 102.863 50.5034 102.299 53.2925 103.368C55.9369 104.381 58.6211 105.485 60.7216 107.384C62.822 109.284 64.2581 112.156 63.7184 114.936C63.1277 115.08 62.6348 114.606 62.174 114.163L62.1739 114.163L62.1739 114.163L62.1738 114.162C62.086 114.078 61.9993 113.995 61.9134 113.917C60.607 112.735 58.8152 112.703 56.9891 112.67C55.8788 112.651 54.7558 112.631 53.7216 112.352C52.4436 112.007 51.3345 111.271 50.2229 110.534ZM54.2727 124.897C54.7981 123.583 55.1193 122.135 54.8321 120.749C54.5449 119.363 53.5438 118.063 52.1661 117.737C48.9788 116.983 46.0816 115.06 44.149 112.416C43.7596 111.883 43.4429 111.052 43.9614 110.644C44.174 110.477 44.4638 110.452 44.7344 110.456C46.4797 110.482 48.0067 111.39 49.5363 112.301L49.5364 112.301L49.5365 112.301L49.5365 112.301L49.5366 112.301L49.5366 112.301C50.1553 112.669 50.7744 113.037 51.4085 113.348C52.9252 114.09 54.5965 114.514 56.2836 114.586C56.6215 114.6 56.9632 114.601 57.3052 114.602H57.3057C58.3825 114.605 59.4628 114.608 60.4413 115.028C61.7308 115.582 62.682 117.26 61.8768 118.41C59.9657 121.138 57.2961 123.227 54.6676 125.273L54.2727 124.897ZM151.017 46.9109C151.311 46.3809 151.746 45.7722 152.348 45.8407C153.127 45.9295 153.284 46.9929 153.177 47.7698C152.418 53.2818 149.006 58.1824 144.665 61.6632C140.324 65.144 135.102 67.3476 129.819 69.0945C129.456 69.2146 129.1 69.441 128.751 69.6634C128.083 70.0884 127.438 70.4985 126.812 70.1226C126.089 69.6895 126.274 68.5012 126.931 67.9746C127.527 67.4968 128.321 67.3943 129.087 67.2955C129.165 67.2854 129.243 67.2753 129.32 67.2649C134.428 66.5773 138.99 63.547 142.479 59.7542C145.968 55.9614 148.521 51.4199 151.017 46.9109ZM56.3109 93.3386C56.7711 93.8868 57.2781 94.4908 57.9764 94.4756C58.5638 94.4629 58.9297 94.9399 59.3089 95.4342C59.5777 95.7846 59.8532 96.1437 60.2189 96.3431C61.0937 96.8199 61.1689 98.1477 60.5948 98.9619C60.0206 99.7761 59.0243 100.172 58.0603 100.424C56.0948 100.938 54.0195 101.026 52.0173 100.683C50.7116 100.458 49.3581 99.9993 48.5351 98.9611C47.7121 97.9229 47.6887 96.179 48.7784 95.4256C49.1429 95.1736 49.5817 95.0561 50.018 94.9394C50.5384 94.8001 51.0551 94.6618 51.4378 94.2974C51.7219 94.027 51.8921 93.6664 52.062 93.3064C52.2401 92.9292 52.4178 92.5526 52.726 92.2808C53.2248 91.8407 53.9806 91.7805 54.6085 92.0004C55.2363 92.2203 55.7524 92.6807 56.1835 93.1874C56.2253 93.2365 56.2674 93.2867 56.3099 93.3373L56.3109 93.3386ZM52.6305 133.871C52.4286 133.951 52.201 133.964 51.9915 133.907C51.7887 133.853 51.6038 133.734 51.4701 133.572C50.9264 132.913 51.6843 131.722 52.5114 131.936C53.3385 132.149 53.4252 133.558 52.6305 133.871ZM119.875 129.738C119.674 129.979 119.183 129.953 119.131 129.644C118.917 128.371 118.815 126.804 119.868 126.057L120.046 128.836C120.066 129.149 120.076 129.497 119.875 129.738ZM109.315 17.2091C110.458 17.9657 111.359 19.0811 111.859 20.3573C111.961 20.6174 112.186 20.7893 112.413 20.9627C112.532 21.0538 112.652 21.1454 112.755 21.2504C113.053 21.5551 113.102 22.2065 112.684 22.2916C112.502 22.3288 112.322 22.2282 112.162 22.1326C109.6 20.6025 106.483 19.367 103.688 20.4121C104.147 20.6469 104.38 21.2494 104.196 21.7319C104.767 21.7525 105.299 22.0091 105.811 22.2607L107.166 22.9253L107.024 23.3252C104.983 22.2858 102.49 22.1778 100.366 23.0366C101.072 23.1438 101.791 23.1634 102.501 23.0948L105.609 24.6612C105.84 24.7774 106.083 24.9051 106.213 25.1283C106.342 25.3514 106.293 25.6974 106.052 25.7894C104.18 24.1385 101.532 23.4084 99.0785 23.8669C98.7922 23.9204 98.5963 23.5211 98.7178 23.2563C98.8393 22.9916 99.1307 22.8558 99.4017 22.7491C100.762 22.2136 102.196 21.8672 103.651 21.723C102.923 21.0485 102.08 20.4986 101.17 20.1042C101.02 19.5915 101.76 19.1 102.174 19.4369C105.325 18.8194 108.699 19.4321 111.431 21.1177C111.454 20.5817 111.057 20.1311 110.685 19.7445L107.197 16.1189C109.233 16.3769 111.228 16.95 113.09 17.8117C113.512 18.0066 113.928 18.217 114.309 18.4811C115.746 19.4757 116.601 21.2549 116.48 22.9981C115.609 21.1586 114.232 19.5624 112.54 18.4323C111.572 17.7864 110.475 17.2835 109.315 17.2091ZM116.487 34.1369C116.289 32.5986 116.28 30.9577 117.012 29.5903C117.23 29.1813 117.534 28.7884 117.965 28.6169C118.624 28.3547 119.383 28.6894 119.904 29.1723C121.194 30.3703 121.468 32.3108 121.358 34.068C121.31 34.8315 121.197 35.6125 120.823 36.2797C120.449 36.9469 119.764 37.4837 118.999 37.4949C118.231 37.5062 117.53 36.9869 117.131 36.3309C116.731 35.6749 116.584 34.8986 116.487 34.1369ZM98.1198 39.8608C96.6688 37.6402 96.7666 34.5166 98.3538 32.3911C98.5434 32.1371 98.759 31.891 99.0407 31.7458C99.5896 31.4629 100.291 31.6335 100.766 32.0274C101.242 32.4214 101.528 32.9983 101.735 33.5801C102.348 35.3033 102.373 37.2297 101.806 38.9686C101.462 40.0231 100.608 41.1642 99.5155 40.9734C98.9122 40.8682 98.4548 40.3735 98.1198 39.8608ZM112.057 51.2659C112.232 51.2174 112.405 51.1693 112.533 51.0465C112.805 50.7863 112.71 50.2835 112.401 50.0681C112.092 49.8528 111.659 49.8901 111.33 50.0726C110.997 50.2573 110.732 50.6229 110.788 50.9998C110.844 51.3766 111.326 51.658 111.636 51.4364C111.759 51.3485 111.909 51.3071 112.057 51.2659ZM115.975 45.1421C118.384 44.6084 119.731 44.676 121.797 45.2026L122.233 45.3162C124.295 45.8547 125.583 45.8571 128.201 45.0086C128.513 44.9072 128.849 45.0786 128.951 45.3916C129.052 45.7045 124.276 47.0617 122.093 46.5103L121.69 46.4055C119.68 45.8775 118.511 45.8005 116.233 46.3053C115.912 46.3764 115.593 46.1737 115.522 45.8526C115.451 45.5314 115.654 45.2133 115.975 45.1421ZM134.896 39.3895C134.751 39.0944 134.394 38.9729 134.099 39.1182C129.859 41.2048 127.511 41.4766 123.645 40.9831L122.669 40.8623C122.558 40.8497 122.461 40.8394 122.358 40.8294L122.01 40.7985C119.708 40.6176 117.883 41.0081 115.542 42.4064C115.259 42.5751 115.167 42.9408 115.336 43.2233C115.505 43.5057 115.87 43.5979 116.153 43.4293C118.331 42.1282 119.94 41.8056 122.089 42.0009C122.232 42.0138 122.351 42.0255 122.489 42.0408L123.918 42.2166C127.758 42.6626 135.041 39.6847 134.896 39.3895ZM105.487 44.9825C105.815 44.9591 106.1 45.2062 106.123 45.5343C106.147 45.8625 105.9 46.1474 105.571 46.1708C104.214 46.2675 103.278 46.7293 101.874 47.8607L101.366 48.2801C101.218 48.404 101.051 48.5442 101.006 48.582C99.768 49.6138 98.9437 50.1761 97.8503 50.6245C97.5459 50.7494 95.4438 51.1771 97.0731 50.2995C98.7024 49.4219 100.825 47.1798 100.825 47.1798L101.136 46.9254C102.712 45.6573 103.839 45.0998 105.487 44.9825ZM106.381 47.8311C106.251 47.5285 105.901 47.3879 105.599 47.5171C104.104 48.1553 103.262 48.971 101.847 50.8227L101.41 51.391C101.124 51.7571 100.884 52.1266 100.651 52.4852C100.138 53.2759 99.6588 54.0136 98.7942 54.5454C97.5376 55.3184 99.3334 54.9131 99.6137 54.7408C100.729 54.0546 101.453 53.2975 102.582 51.8226L102.91 51.3943C104.136 49.805 104.852 49.1314 106.067 48.6128C106.369 48.4836 106.51 48.1337 106.381 47.8311Z"
    fill="#00160A" />
  <path fill-rule="evenodd" clip-rule="evenodd"
    d="M108.468 45.9373C107.98 45.4981 107.272 45.3636 106.796 44.9121C106.345 44.4841 106.173 43.7862 106.372 43.1971C106.572 42.6081 107.133 42.1589 107.752 42.0934C109.526 41.9053 111.3 41.7172 113.074 41.5292C113.495 41.4845 113.96 41.4511 114.301 41.702C114.822 42.0851 114.74 42.9223 114.363 43.4478C113.987 43.9734 113.407 44.3121 112.953 44.7728C112.369 45.3666 112.003 46.1714 111.941 47.0023C111.894 47.6193 111.961 48.3546 111.472 48.7337C110.859 49.2096 109.951 48.6472 109.575 47.9675C109.199 47.2877 109.045 46.4572 108.468 45.9373H108.468Z"
    fill="#FFB61D" />
  <path fill-rule="evenodd" clip-rule="evenodd"
    d="M180.402 130.017C184.17 130.032 189.533 129.896 192.272 127.308C194.839 124.882 195.734 121.868 195.344 118.357C194.954 114.846 192.253 110.52 192.15 106.988C192.957 114.526 203.665 116.634 207.02 123.432C208.834 127.106 208.108 131.64 206.09 135.205C204.071 138.771 200.92 141.542 197.73 144.114C188.742 151.358 177.669 156.094 170.153 164.856C162.636 173.617 156.915 187.279 160.174 198.354C163.496 209.639 177.758 217.518 189.401 215.836C190.524 215.674 191.664 215.424 192.622 214.815C194.893 213.373 195.555 210.321 195.345 207.639C195.135 204.956 194.269 202.331 194.334 199.641C194.477 193.759 198.931 188.957 203.357 185.08C214.273 175.522 227.374 166.981 232.393 153.368C235.819 144.076 234.729 133.234 229.523 124.81C222.453 113.371 208.854 106.974 202.481 95.1326C202.292 97.5336 201.868 99.9161 201.217 102.235C200.939 103.227 200.462 104.36 199.455 104.585C198.399 104.821 210.198 88.0567 186.484 67.1525C177.667 59.3797 166.738 53.7357 155.811 48.8408C152.066 60.7125 141.103 69.9769 128.774 71.69C127.931 71.807 127.739 72.9248 127.758 73.7751C128.025 85.5159 128.293 97.2567 128.56 108.997C128.676 114.099 128.338 120.117 124.068 122.91C122.307 124.062 121.762 126.718 122.926 128.471C124.09 130.223 126.751 130.749 128.495 129.573C126.471 126.156 128.785 121.045 132.688 120.31C134.125 120.04 134.583 118.24 134.741 116.786C135.448 110.264 136.155 103.743 136.862 97.2218C137.135 104.662 137.407 112.101 137.68 119.541C144.923 116.278 153.362 122.143 161.144 120.547C154.701 116.083 148.755 110.362 146.048 103.007C143.34 95.6513 144.607 86.4449 150.636 81.4365C147.045 87.174 146.336 94.6203 148.78 100.932C151.136 107.019 156.059 111.715 161.079 115.886C162.635 117.179 164.308 118.584 164.79 120.549C165.271 122.513 163.759 125.026 161.767 124.672C154.675 122.005 146.992 120.92 139.439 121.518C137.098 121.703 134.643 122.101 132.819 123.579C130.996 125.058 130.123 127.941 131.534 129.817C147.823 129.883 164.113 129.95 180.402 130.017Z"
    fill="white" />
  <path fill-rule="evenodd" clip-rule="evenodd"
    d="M189.229 215.67C190.352 215.507 191.491 215.257 192.449 214.649C194.721 213.206 195.383 210.154 195.173 207.472C194.963 204.789 194.097 202.165 194.162 199.475C194.305 193.593 198.758 188.79 203.185 184.914C214.101 175.355 227.202 166.815 232.221 153.201C234.23 147.75 208.998 164.419 195.173 184.043C185.431 197.871 184.416 216.365 189.229 215.67Z"
    fill="#E7EAEE" />
  <path fill-rule="evenodd" clip-rule="evenodd"
    d="M198.511 80.113C196.801 75.9941 192.033 72.0284 186.312 66.9853C177.495 59.2125 166.566 53.5684 155.638 48.6736C166.353 56.4791 179.416 62.9946 188.711 72.7911C193.241 77.566 196.306 87.1885 198.867 90.2808C200.828 92.648 203.389 91.8598 198.511 80.113Z"
    fill="#E7EAEE" />
  <path fill-rule="evenodd" clip-rule="evenodd"
    d="M123.007 78.4985C123.396 77.6501 123.669 73.7344 121.622 73.7344C120.345 75.184 120.476 77.9658 123.007 78.4985Z"
    fill="#FFB61D" />
  <path fill-rule="evenodd" clip-rule="evenodd"
    d="M60.9065 87.7297C56.2592 88.9593 51.0373 89.8959 48.0881 93.6922C48.728 94.108 49.6108 93.7831 50.1622 93.2556C50.7137 92.7281 51.0741 92.0276 51.6187 91.493C53.3461 89.7972 56.7855 90.6941 57.4648 93.0175C58.2392 91.9966 59.9349 92.6106 60.7425 93.6054C61.5502 94.6002 62.0475 95.9212 63.1703 96.5387C64.1839 94.8431 66.0718 93.8391 67.987 93.3546C69.9022 92.8701 71.8969 92.8255 73.8568 92.5772C77.1703 92.1576 80.4078 91.1453 83.3702 89.6028C83.1902 89.9723 95.4644 84.6498 106.696 83.8783C114.898 83.3149 122.612 87.0633 124.18 87.8894C125.215 81.749 126.183 75.1169 123.376 69.5584C123.605 72.1135 124.042 74.65 124.679 77.135C125.051 78.5861 123.272 79.9262 121.831 79.5148C120.391 79.1035 119.54 77.5231 119.491 76.0258C119.443 74.5284 120.018 73.0896 120.584 71.7025C121.026 70.6187 121.469 69.5349 121.911 68.4511C122.108 67.9666 122.309 67.4661 122.306 66.9428C122.296 65.4563 120.743 64.5102 119.363 63.9593C116.728 62.9081 113.96 62.1898 111.147 61.8271C110.386 61.7291 109.513 61.692 108.962 62.2264C101.84 69.1396 92.8082 73.6848 83.9298 78.1231C76.4778 81.8484 68.9606 85.5987 60.9065 87.7297Z"
    fill="white" />
  <path fill-rule="evenodd" clip-rule="evenodd"
    d="M63.1701 96.5389C64.1838 94.8433 66.0717 93.8393 67.9869 93.3548C69.902 92.8703 71.8968 92.8256 73.8567 92.5774C74.6213 92.4806 77.7614 91.9849 81.8374 90.5547C87.7308 88.4869 95.8209 85.1856 103.529 84.3458C113.59 83.2494 122.562 87.037 124.18 87.8895C125.215 81.7492 121.715 82.4866 119.836 82.2925C78.2952 78.0018 62.0474 95.9213 63.1701 96.5389Z"
    fill="#E7EAEE" />
</svg>