<svg xmlns="http://www.w3.org/2000/svg" width="172" height="160" viewBox="0 0 172 160" fill="none">
  <path fill-rule="evenodd" clip-rule="evenodd"
    d="M40.0983 87.8153C40.3072 88.8235 40.0735 89.8763 39.6915 90.8323C39.7872 90.9234 39.8829 91.0146 39.9786 91.1057C41.8903 89.6175 43.8318 88.0984 45.2217 86.1141C45.8073 85.2782 45.1155 84.0577 44.1777 83.655C43.2399 83.2522 42.1736 83.3764 41.1539 83.3332C39.927 83.2813 38.7114 82.9725 37.6084 82.4327C36.0069 81.6489 34.5373 80.356 32.7545 80.3294C32.5577 80.3265 32.347 80.3446 32.1923 80.4664C31.8152 80.7632 32.0456 81.3677 32.3288 81.7552C33.7343 83.6784 35.8413 85.0768 38.1594 85.625C39.1613 85.8619 39.8894 86.8071 40.0983 87.8153Z"
    fill="#35D4DD" />
  <path fill-rule="evenodd" clip-rule="evenodd"
    d="M70.852 117.188L45.5089 122.844C40.3291 124 35.1929 120.738 34.0369 115.559C33.4797 113.062 33.9409 110.446 35.3184 108.291L49.3013 86.4104C53.6059 79.6745 55.0473 71.5002 53.306 63.6982L47.6499 38.355C46.4939 33.1751 49.7558 28.0389 54.9356 26.8829C57.4322 26.3257 60.0479 26.7869 62.2034 28.1644L84.0836 42.1473C90.8195 46.452 98.9938 47.8934 106.796 46.1521L132.139 40.496C137.319 39.3399 142.455 42.6018 143.611 47.7817C144.168 50.2783 143.707 52.8941 142.329 55.0496L128.346 76.9299C124.042 83.6658 122.6 91.8401 124.342 99.6421L129.998 124.985C131.154 130.165 127.892 135.301 122.712 136.457C120.215 137.015 117.6 136.553 115.444 135.176L93.5641 121.193C86.8282 116.888 78.6539 115.447 70.852 117.188Z"
    fill="#35D4DD" />
  <path
    d="M159.988 107.323C159.988 107.323 46.4126 107.383 1.44563 107.323C-2.08381 99.6284 2.35633 89.3474 10.3774 86.6416C7.8671 89.5054 5.35685 92.3691 2.8466 95.2329C7.25697 95.1886 159.988 95.2329 159.988 95.2329V107.323Z"
    fill="white" />
  <path fill-rule="evenodd" clip-rule="evenodd"
    d="M123.358 107.341C66.9652 107.363 26.328 107.357 1.4459 107.324C-2.08354 99.6295 84.4569 102.87 117.273 102.87C150.089 102.87 134.907 107.336 123.358 107.341Z"
    fill="#E7EAEE" />
  <path fill-rule="evenodd" clip-rule="evenodd"
    d="M99.8719 19.1149C100.273 18.658 101.064 18.6242 101.502 19.0453C100.086 16.2413 95.9444 15.4007 95.0545 12.3883C93.9153 8.53195 92.235 4.83594 90.078 1.44238C89.1805 4.77879 87.4659 7.89224 85.1261 10.4343C84.5174 10.4371 83.9086 10.4398 83.2999 10.4426C81.917 10.4488 80.5218 10.4563 79.1712 10.7537C76.7413 11.2886 74.5634 12.7376 72.1016 13.0982C72.284 12.8697 72.4664 12.6411 72.6489 12.4126C72.5981 12.1768 72.2563 12.0689 72.0794 12.2328C71.7676 10.9925 70.7631 10.0185 69.6235 9.43784C68.484 8.85722 66.8036 7.77653 63.4404 8.06081C67.521 12.6288 66.2573 31.6458 67.2612 35.2497C67.6036 35.3411 67.8656 34.9668 68.0883 34.6912C68.311 34.4156 68.831 34.2463 68.9512 34.5796C69.7872 36.8966 69.9059 40.4621 72.4681 41.8426C72.9626 42.109 73.2566 41.6114 73.2183 41.3688C73.1693 41.0591 73.5413 40.8205 73.8513 40.8675C74.1613 40.9146 74.4092 41.1391 74.651 41.3388C78.7266 44.7039 85.3999 42.9693 89.4803 46.3286C90.2866 46.9924 90.997 47.8575 92.0032 48.1369C92.6038 48.3036 93.2435 48.2379 93.857 48.1279C97.5095 47.4733 100.762 45.3061 103.298 42.598C105.835 39.8898 107.729 36.6516 109.492 33.3866C107.868 32.4666 106.16 31.4636 105.277 29.8182C104.582 28.5218 104.154 26.6634 102.691 26.5049C103.155 28.0118 103.619 29.5186 104.083 31.0254C104.253 31.5772 104.425 32.1526 104.335 32.7229C104.245 33.2931 103.809 33.8533 103.233 33.8823C102.45 33.9215 101.899 33.036 101.122 32.9352C100.975 35.8496 99.8558 38.7067 97.9844 40.9459C97.3351 41.7228 96.0864 42.4284 95.4274 41.6595C96.4277 40.0436 97.4279 38.4276 98.4282 36.8117C99.0515 35.8047 99.6912 34.751 99.8054 33.5722C99.9197 32.3933 99.3351 31.0561 98.2017 30.7124C98.1513 30.4008 98.4801 30.1331 98.7957 30.1238C99.1113 30.1145 99.4019 30.2815 99.673 30.4433C100.682 31.0451 101.691 31.6469 102.7 32.2487C102.378 29.8562 101.72 27.5091 100.751 25.2981C101.69 25.2092 102.65 25.3527 103.522 25.7123C102.85 23.77 101.619 22.0246 100.015 20.7404C99.5404 20.3605 99.471 19.5719 99.8719 19.1149Z"
    fill="white" />
  <path fill-rule="evenodd" clip-rule="evenodd"
    d="M79.722 13.9596C80.5532 14.5098 81.2089 15.3211 81.5726 16.2492C81.6857 16.5378 82.0069 16.6771 82.2237 16.8987C82.4404 17.1203 82.4764 17.594 82.1726 17.6559C82.0398 17.683 81.9094 17.6098 81.793 17.5403C79.9293 16.4275 77.663 15.529 75.6297 16.2891C75.964 16.4598 76.1328 16.898 75.9995 17.2489C76.4145 17.2639 76.8014 17.4505 77.1742 17.6334C77.5025 17.7946 77.8308 17.9557 78.1591 18.1168C78.1247 18.2137 78.0903 18.3107 78.0559 18.4076C76.5715 17.6518 74.7583 17.5732 73.214 18.1977C73.7273 18.2757 74.2502 18.29 74.7669 18.2401C75.5204 18.6198 76.2739 18.9996 77.0273 19.3793C77.1949 19.4638 77.3717 19.5567 77.466 19.719C77.5603 19.8813 77.5245 20.1329 77.3491 20.1998C75.9877 18.9991 74.0619 18.4682 72.2775 18.8016C72.0693 18.8405 71.9268 18.5501 72.0152 18.3576C72.1036 18.1651 72.3155 18.0663 72.5126 17.9887C73.5017 17.5992 74.5448 17.3473 75.6027 17.2424C75.0735 16.7519 74.4606 16.3519 73.7985 16.0651C73.6895 15.6922 74.2275 15.3348 74.529 15.5798C76.8201 15.1307 79.2745 15.5763 81.2614 16.8022C81.2781 16.4124 80.989 16.0846 80.7185 15.8035C79.8731 14.9246 79.0276 14.0457 78.1821 13.1667C79.6625 13.3543 81.1137 13.7712 82.468 14.3978C82.7743 14.5396 83.0768 14.6926 83.3542 14.8847C84.3991 15.608 85.0209 16.902 84.9329 18.1697C84.3 16.832 83.2981 15.671 82.0673 14.8492C81.3638 14.3794 80.5662 14.0137 79.722 13.9596V13.9596Z"
    fill="#E7EAEE" />
  <path fill-rule="evenodd" clip-rule="evenodd"
    d="M25.9068 77.19C23.7629 79.1143 23.9501 82.519 24.7239 85.294C25.7194 88.8638 27.4028 92.2404 29.6546 95.1839L2.8466 95.4533L10.3774 86.862C2.35633 89.5678 -2.08381 99.8488 1.44563 107.543C46.4126 107.603 91.3798 107.511 136.346 107.267C128.145 112.81 120.194 119.535 116.383 128.671C112.571 137.807 114.15 149.818 122.252 155.506C125.269 157.624 128.893 158.71 132.516 159.396C136.251 160.103 140.775 160.133 143.08 157.11C144.427 155.345 143.783 152.574 143.147 149.835C142.703 147.923 142.262 146.027 142.503 144.497C143.319 139.309 146.812 136.678 150.797 133.676C151.635 133.045 152.494 132.398 153.354 131.707C160.701 125.811 169.123 118.355 171.267 109.182C173.226 100.803 171.07 92.491 165.469 85.9587C163.452 83.6067 160.973 81.466 158.481 79.3145C155.133 76.4234 151.762 73.5128 149.46 70.0436C148.054 67.9251 147.562 65.6604 147.044 63.2839C146.859 62.4309 146.67 61.5636 146.435 60.6834C143.415 49.3822 132.647 43.5715 121.559 37.5882C120.154 36.8304 118.745 36.0698 117.345 35.295C110.928 31.7422 104.452 27.1946 102.392 20.0759C103.528 20.1202 103.949 18.4123 103.294 17.4826C102.808 16.7911 102.038 16.4021 101.271 16.014L101.271 16.0139C101.007 15.8801 100.742 15.7465 100.49 15.6006C98.147 14.2461 96.8038 11.4828 95.4282 8.653C93.3617 4.40157 91.2221 0 85.5097 0C85.2943 1.44241 85.5171 2.72744 85.7259 3.93142C86.0486 5.79208 86.3377 7.45917 84.9238 9.21444C80.8756 8.76549 76.6904 9.65077 73.1707 11.7006C71.1358 7.83732 65.975 6.18705 61.7916 7.43782C62.3213 8.10458 62.6355 8.43904 62.8959 8.71627L62.8959 8.71629L62.8959 8.71631L62.8959 8.71633L62.896 8.71635C63.4461 9.30203 63.7565 9.63243 65.3526 12.3015C67.7042 16.2339 66.2143 30.6907 65.8422 32.9763C65.47 35.262 67.2311 36.8864 68.842 35.7577C68.0573 39.1455 70.8843 42.3785 74.3604 42.476C75.5476 42.6878 76.2854 43.2621 76.9827 43.8049C77.4164 44.1425 77.8344 44.4679 78.3352 44.6863C67.2976 52.5812 55.0788 58.8215 42.212 63.1348L41.9857 63.2106C39.5783 64.0163 37.0617 64.8586 35.3571 66.7294C33.599 68.659 33.1861 72.0843 35.232 73.7056C33.9828 74.8383 32.2733 75.1463 30.5632 75.4544C28.8601 75.7613 27.1565 76.0682 25.9068 77.19ZM139.929 92.4685C137.937 94.3507 134.037 94.4492 131.296 94.438L95.7561 94.2926C94.7295 92.9283 95.3645 90.8316 96.6909 89.7564C98.0172 88.6812 99.8029 88.3918 101.505 88.2571C106.998 87.8221 112.586 88.6114 117.744 90.5511C119.192 90.8085 120.292 88.9812 119.942 87.5523C119.592 86.1235 118.375 85.1015 117.243 84.1614C113.592 81.1282 110.012 77.7125 108.298 73.2859C106.521 68.6954 107.037 63.2798 109.648 59.1071C105.264 62.7496 104.343 69.4451 106.312 74.7945C108.281 80.1438 112.605 84.3047 117.29 87.5511C114.731 88.0758 112.075 87.4914 109.445 86.9128C106.259 86.2118 103.112 85.5195 100.226 86.8196L99.6308 70.5873L98.0883 84.8156C97.9736 85.8734 97.6406 87.1823 96.595 87.379C93.7567 87.9131 92.074 91.6301 93.5456 94.1152C92.2773 94.971 90.3424 94.5881 89.4957 93.3138C88.6489 92.0394 89.0457 90.1073 90.3261 89.2697C93.4318 87.2382 93.6775 82.8616 93.593 79.1515L93.0099 53.5352C92.9958 52.9168 93.1358 52.1039 93.7484 52.0187C102.716 50.7729 110.688 44.0351 113.412 35.4012C121.359 38.9611 129.307 43.0658 135.72 48.7188C150.395 61.6553 146.369 72.4121 145.316 75.226C145.132 75.719 145.039 75.9682 145.153 75.9426C145.885 75.779 146.232 74.9551 146.435 74.2332C146.908 72.5468 147.216 70.8141 147.354 69.068C149.775 73.5673 153.632 76.9858 157.495 80.4113C161.027 83.5421 164.565 86.6787 167.02 90.6515C170.807 96.778 171.599 104.663 169.108 111.421C166.165 119.403 159.401 124.987 152.73 130.495L152.73 130.495L152.73 130.495C151.127 131.819 149.529 133.138 147.991 134.485C144.772 137.304 141.533 140.796 141.429 145.074C141.401 146.221 141.606 147.35 141.811 148.482L141.811 148.482L141.811 148.483L141.811 148.483L141.811 148.484C141.956 149.283 142.101 150.083 142.164 150.891C142.317 152.841 141.835 155.061 140.183 156.11C139.486 156.552 138.658 156.734 137.841 156.852C129.373 158.075 119.001 152.345 116.585 144.138C114.215 136.084 118.376 126.148 123.842 119.776C127.238 115.817 131.632 112.988 136.041 110.15L136.041 110.15C138.729 108.42 141.423 106.686 143.898 104.691C146.219 102.821 148.51 100.805 149.978 98.2116C151.446 95.6184 151.974 92.3216 150.655 89.6494C149.574 87.4594 147.444 85.9386 145.355 84.4475C142.728 82.5723 140.167 80.744 139.841 77.6903C139.881 79.0623 140.46 80.5993 141.034 82.1227C141.534 83.451 142.031 84.769 142.163 85.9584C142.447 88.5119 141.796 90.7039 139.929 92.4685ZM144.25 87.2332C147.818 87.2721 149.913 91.7885 148.91 95.2122C147.906 98.6359 144.958 101.073 142.163 103.29C140.761 104.403 139.213 105.569 137.423 105.583L2.45893 106.592L1.8676 96.1226L27.8973 96.0978C31.2641 96.0946 35.0816 96.2871 37.2746 98.8417C38.0721 99.7707 39.4922 98.7593 40.4652 98.0161C42.7701 96.2556 45.8998 96.1696 48.8002 96.1579L144.03 95.7714C145.051 95.7673 146.425 95.4243 146.392 94.4036L139.988 94.1628C142.288 92.5799 143.875 89.9997 144.25 87.2332ZM45.2102 94.9613C46.6387 91.5111 47.7225 87.9184 48.4402 84.2538C48.6417 83.2246 48.815 82.1707 48.678 81.131C48.2669 78.0105 45.3039 75.9568 42.5817 74.3769C43.7437 74.3536 44.7346 73.5323 45.4804 72.641C45.688 72.3929 45.8862 72.1349 46.0844 71.8769C46.5983 71.2078 47.1121 70.5387 47.7893 70.0439C49.1785 69.0286 49.401 69.0104 52.2707 68.7751L52.2756 68.7747C52.5698 68.7506 52.8918 68.7242 53.2456 68.6942C55.7693 68.4803 61.8728 66.1807 66.3293 64.5016L66.3294 64.5016C68.6029 63.645 70.4477 62.9499 71.17 62.7757C81.0543 60.3905 87.9056 63.5132 89.4486 65.1963C90.2907 66.1148 90.4972 67.432 90.6664 68.6666C91.4275 74.2206 92.1889 79.8622 91.3872 85.4105C91.2376 86.4463 90.9608 87.588 90.0825 88.157C89.2018 88.7275 88.3725 89.3773 87.6079 90.0959C86.3819 91.248 85.2796 93.1185 86.2319 94.5054L45.2102 94.9613ZM101.472 18.6343C101.034 18.2131 100.243 18.2469 99.8418 18.7039C99.4408 19.1608 99.5102 19.9494 99.9848 20.3293C101.589 21.6136 102.82 23.3589 103.492 25.3012C102.62 24.9416 101.659 24.7981 100.72 24.8871C101.69 27.0981 102.348 29.4451 102.67 31.8377L99.6429 30.0322C99.3717 29.8705 99.0811 29.7034 98.7656 29.7127C98.45 29.722 98.1211 29.9897 98.1716 30.3014C99.305 30.6451 99.8895 31.9823 99.7753 33.1611C99.661 34.34 99.0214 35.3936 98.398 36.4006L95.3973 41.2484C96.0562 42.0173 97.3049 41.3118 97.9543 40.5348C99.8257 38.2956 100.945 35.4386 101.092 32.5241C101.453 32.5709 101.765 32.7871 102.074 33.0012C102.431 33.248 102.783 33.4922 103.202 33.4712C103.779 33.4423 104.215 32.8821 104.305 32.3118C104.395 31.7415 104.223 31.1661 104.053 30.6143L102.661 26.0939C103.796 26.2168 104.307 27.3626 104.805 28.4755C104.948 28.7973 105.091 29.1164 105.247 29.4071C106.13 31.0525 107.838 32.0555 109.462 32.9756C107.699 36.2405 105.805 39.4787 103.268 42.1869C100.731 44.8951 97.4794 47.0623 93.8269 47.7169C93.2133 47.8268 92.5737 47.8926 91.9731 47.7258C91.2208 47.5169 90.6338 46.9806 90.0485 46.4458L90.0484 46.4458C89.8509 46.2653 89.6536 46.085 89.4502 45.9176C87.4112 44.2389 84.7248 43.8322 82.0385 43.4255C79.3491 43.0184 76.6599 42.6113 74.6208 40.9277L74.5628 40.8795C74.3391 40.6934 74.1065 40.4998 73.8212 40.4565C73.5112 40.4094 73.1392 40.648 73.1881 40.9578C73.2265 41.2003 72.9324 41.698 72.438 41.4315C70.5314 40.4042 69.9778 38.1671 69.4749 36.1348L69.4748 36.1347L69.4748 36.1347L69.4748 36.1345L69.4747 36.1344C69.3018 35.4357 69.1349 34.7613 68.9211 34.1685C68.8008 33.8352 68.2809 34.0045 68.0582 34.2801C68.0404 34.3021 68.0224 34.3248 68.004 34.3478C67.7931 34.6126 67.5461 34.9227 67.2311 34.8386C66.8551 33.4561 66.9861 31.8934 67.1129 30.3815V30.3814C67.1645 29.7658 67.2154 29.1587 67.2311 28.5756C67.2325 28.5228 67.2488 28.3638 67.2743 28.1144L67.2744 28.1136C67.5656 25.2676 69.0586 10.6769 63.4404 8.06168C64.7762 7.79837 66.9319 8.04201 68.8419 9.21365C70.7744 10.399 72.1632 12.5722 72.0714 12.6871C73.4061 12.4916 74.6574 11.9762 75.9106 11.46L75.9106 11.4599C76.9689 11.024 78.0286 10.5875 79.1411 10.3426C80.4916 10.0453 81.8869 10.0377 83.2697 10.0315L85.096 10.0233C87.0633 7.88581 86.9872 5.54434 86.8989 2.82901C86.8822 2.31497 86.8651 1.78753 86.8613 1.24554C90.2711 1.69339 93.8852 8.12088 95.0244 11.9772C95.5002 13.5879 96.9057 14.5777 98.3271 15.5787C99.5641 16.4498 100.813 17.3295 101.472 18.6343ZM43.3547 64.1055C43.7452 64.0064 44.1334 63.9078 44.5162 63.8065C50.3737 62.2567 55.8408 59.5292 61.2604 56.8199C67.7174 53.592 74.2856 50.2864 79.4658 45.2587C79.8661 44.8701 80.5011 44.897 81.0545 44.9683C83.1007 45.2321 85.1135 45.7544 87.0297 46.519C88.0338 46.9196 89.1632 47.6077 89.1703 48.6888C89.1727 49.0694 89.0266 49.4333 88.8828 49.7858L87.9181 52.1504C87.5065 53.1592 87.0878 54.2056 87.1233 55.2946C87.1589 56.3835 87.7772 57.5329 88.8249 57.8321C89.8726 58.1312 91.1668 57.1567 90.8961 56.1013C90.4325 54.294 90.1152 52.4493 89.9485 50.591C91.9897 54.6336 91.2857 59.457 90.5331 63.9227C87.8314 62.4992 85.0033 61.3157 82.093 60.3908C81.0934 60.0731 79.9729 59.7931 79.0287 60.2497C76.7167 61.3675 72.3652 61.6653 71.9366 61.3649C71.5081 61.0645 70.9219 61.2094 70.4282 61.3829C69.6331 61.6624 68.1177 62.2532 66.3073 62.959L66.3071 62.9591C61.8648 64.6909 55.6466 67.1152 53.9346 67.332C53.4839 67.3891 53.0308 67.4314 52.5777 67.4737H52.5776H52.5775H52.5774H52.5774H52.5773C51.5974 67.5651 50.618 67.6564 49.6656 67.8974C48.2728 68.2497 46.8998 68.9799 46.1626 70.2131C45.6118 69.9102 45.268 69.3745 44.9223 68.8359L44.9222 68.8357C44.7554 68.5758 44.5881 68.3152 44.397 68.0798C43.8096 67.3563 42.5763 66.9097 42.0131 67.6522C41.5191 65.9624 39.0177 65.3101 37.7615 66.5435C37.5673 66.7341 37.4053 66.9537 37.2434 67.1732L37.2433 67.1733C37.075 67.4016 36.9066 67.6298 36.7022 67.8254C36.3011 68.209 35.6592 68.4453 35.1938 68.1429C37.0957 65.6946 40.2973 64.8818 43.3547 64.1055ZM37.1552 94.7919C35.7203 95.3081 34.137 94.805 32.7134 94.2581C31.3677 93.7412 29.963 93.1244 29.1455 91.9371C28.1617 90.5081 28.2678 88.6225 28.4127 86.8937L29.02 79.6517C28.1195 80.4091 27.458 81.4466 27.1516 82.5827C26.4239 80.9773 27.5063 78.833 29.2301 78.4651C28.5019 77.8619 27.3031 78.2577 26.7891 79.0514C26.275 79.8451 26.2867 80.8672 26.437 81.8008C26.4775 82.0526 26.5269 82.304 26.5762 82.5555L26.5763 82.5557C26.7099 83.2364 26.8436 83.9173 26.8024 84.6065C25.7204 82.9157 25.5141 80.6958 26.2662 78.8345C26.6067 77.9916 27.2104 77.1668 28.0932 76.9497C28.976 76.7326 30.0686 77.4539 29.9223 78.3512C29.5872 80.4075 30.546 82.5184 32.0165 83.9944C33.4869 85.4704 35.4138 86.4002 37.3587 87.1472C38.0745 87.4221 38.9645 88.0517 38.6155 88.7344C38.251 89.4475 37.9996 90.2544 38.1248 91.0454C38.25 91.8364 38.8294 92.5922 39.6185 92.7286C40.5912 92.8967 41.4568 92.1432 42.1561 91.4466L46.2873 87.3306C45.7368 88.8602 45.091 90.3555 44.3548 91.805C43.8506 92.7978 43.2739 93.8034 42.3624 94.4428C41.4508 95.0823 40.1164 95.2488 39.2541 94.5442C38.7737 94.1516 38.1183 94.4127 37.5081 94.6558C37.3882 94.7036 37.27 94.7506 37.1552 94.7919ZM36.7463 80.3879L36.7461 80.3878L36.7459 80.3877L36.7457 80.3875L36.7455 80.3874C36.3604 80.132 35.975 79.8764 35.5756 79.6511C34.3375 78.9527 32.6933 78.5771 31.5568 79.4309C31.1925 78.2582 31.9127 76.9987 32.8521 76.2078C34.514 74.8088 36.9504 74.3984 38.9788 75.176C40.902 75.9132 42.8541 76.7157 44.3817 78.0972C45.9093 79.4787 46.9537 81.5677 46.5612 83.5896C46.1316 83.6942 45.7731 83.3493 45.438 83.0269L45.4379 83.0267C45.374 82.9653 45.311 82.9046 45.2485 82.8481C44.2984 81.9886 42.9952 81.9653 41.6672 81.9416C40.8597 81.9271 40.043 81.9126 39.2909 81.7097C38.3614 81.459 37.5547 80.9241 36.7463 80.3879ZM39.6917 90.8336C40.0738 89.8775 40.3074 88.8247 40.0985 87.8166C39.8896 86.8084 39.1615 85.8632 38.1596 85.6263C35.8415 85.0781 33.7345 83.6796 32.329 81.7565C32.0458 81.369 31.8154 80.7645 32.1925 80.4676C32.3472 80.3459 32.5579 80.3278 32.7547 80.3307C34.024 80.3497 35.1346 81.0105 36.2471 81.6725C36.6971 81.9403 37.1474 82.2082 37.6086 82.434C38.7117 82.9738 39.9272 83.2825 41.1541 83.3345C41.4 83.3449 41.6486 83.3456 41.8975 83.3463C42.6806 83.3484 43.4663 83.3506 44.1779 83.6562C45.1157 84.059 45.8075 85.2795 45.2219 86.1154C43.832 88.0996 41.8905 89.6188 39.9788 91.1069L39.6917 90.8336ZM110.051 34.1174C110.264 33.7319 110.581 33.2892 111.019 33.3391C111.585 33.4036 111.7 34.177 111.622 34.742C111.07 38.7507 108.588 42.3148 105.431 44.8463C102.275 47.3778 98.4765 48.9805 94.6346 50.2509C94.3705 50.3382 94.1117 50.5029 93.8576 50.6646C93.3718 50.9737 92.903 51.272 92.4471 50.9986C91.9218 50.6836 92.0559 49.8195 92.5339 49.4365C92.9676 49.089 93.5451 49.0144 94.1018 48.9426L94.1034 48.9423L94.2013 48.9296L94.2717 48.9203C97.9863 48.4202 101.304 46.2164 103.842 43.458C106.379 40.6996 108.236 37.3967 110.051 34.1174ZM41.1741 67.883C41.5087 68.2817 41.8774 68.721 42.3853 68.71C42.8125 68.7007 43.0786 69.0476 43.3544 69.4071C43.5499 69.6619 43.7502 69.9231 44.0162 70.0681C44.6524 70.4149 44.7071 71.3805 44.2895 71.9727C43.872 72.5648 43.1474 72.8531 42.4463 73.0362C41.0169 73.4096 39.5075 73.4742 38.0514 73.2241C37.1018 73.061 36.1175 72.7272 35.5189 71.9721C34.9204 71.2171 34.9033 69.9488 35.6959 69.4008C35.961 69.2176 36.2801 69.1321 36.5974 69.0472C36.9758 68.9459 37.3516 68.8453 37.63 68.5803C37.8366 68.3837 37.9604 68.1214 38.084 67.8596C38.2134 67.5853 38.3427 67.3114 38.5668 67.1137C38.9296 66.7936 39.4793 66.7498 39.9359 66.9098C40.3925 67.0697 40.7678 67.4046 41.0814 67.773L41.1181 67.8164L41.1741 67.883ZM38.4974 97.3614C38.3505 97.4193 38.185 97.4286 38.0326 97.3876C37.8851 97.3479 37.7506 97.2613 37.6534 97.1435C37.258 96.6644 37.8092 95.7983 38.4107 95.9536C39.0122 96.1089 39.0753 97.1335 38.4974 97.3614ZM87.4023 94.3546C87.256 94.5298 86.8992 94.5116 86.8613 94.2865C86.7053 93.3606 86.6312 92.2214 87.397 91.6781L87.5269 93.6988C87.5415 93.9267 87.5486 94.1793 87.4023 94.3546ZM79.722 12.516C80.5533 13.0662 81.209 13.8775 81.5727 14.8057C81.6468 14.9948 81.8103 15.1198 81.9752 15.2459C82.0619 15.3122 82.149 15.3788 82.2237 15.4552C82.4405 15.6768 82.4765 16.1505 82.1727 16.2124C82.0399 16.2394 81.9095 16.1663 81.7931 16.0968C79.9294 14.9839 77.663 14.0854 75.6298 14.8455C75.9641 15.0162 76.1329 15.4544 75.9995 15.8053C76.4145 15.8203 76.8014 16.0069 77.1742 16.1899L78.1592 16.6732L78.056 16.9641C76.5716 16.2082 74.7584 16.1296 73.2141 16.7542C73.7274 16.8322 74.2503 16.8464 74.767 16.7965L77.0274 17.9358C77.195 18.0202 77.3718 18.1131 77.4661 18.2754C77.5604 18.4377 77.5246 18.6894 77.3492 18.7563C75.9878 17.5555 74.0619 17.0246 72.2776 17.3581C72.0693 17.397 71.9269 17.1065 72.0153 16.914C72.1037 16.7215 72.3155 16.6227 72.5126 16.5451C73.5018 16.1556 74.5449 15.9037 75.6028 15.7989C75.0736 15.3083 74.4607 14.9084 73.7985 14.6216C73.6896 14.2487 74.2276 13.8912 74.5291 14.1362C76.8201 13.6871 79.2746 14.1328 81.2615 15.3586C81.2782 14.9688 80.9891 14.6411 80.7186 14.3599L78.1822 11.7232C79.6626 11.9108 81.1138 12.3276 82.4681 12.9543C82.7743 13.096 83.0768 13.249 83.3543 13.4411C84.3992 14.1645 85.021 15.4584 84.933 16.7262C84.3 15.3884 83.2982 14.2275 82.0674 13.4056C81.3639 12.9359 80.5662 12.5701 79.722 12.516ZM84.9379 24.8274C84.7941 23.7086 84.7876 22.5153 85.3197 21.5208C85.4789 21.2233 85.6997 20.9375 86.0132 20.8129C86.4928 20.6221 87.0448 20.8656 87.423 21.2168C88.3613 22.088 88.5609 23.4993 88.4806 24.7773C88.4456 25.3326 88.364 25.9005 88.0918 26.3858C87.8195 26.871 87.3217 27.2614 86.7654 27.2696C86.2069 27.2778 85.697 26.9001 85.4065 26.4231C85.1159 25.946 85.0091 25.3814 84.9379 24.8274ZM71.5804 28.9911C70.5251 27.3761 70.5963 25.1043 71.7505 23.5585C71.8885 23.3738 72.0453 23.1949 72.2502 23.0892C72.6494 22.8835 73.1594 23.0076 73.5052 23.2941C73.851 23.5806 74.0588 24.0001 74.2094 24.4232C74.6552 25.6765 74.6737 27.0776 74.261 28.3422C74.0107 29.1091 73.3902 29.939 72.5954 29.8003C72.1566 29.7237 71.824 29.3639 71.5804 28.9911ZM81.7167 37.2842C81.8435 37.249 81.9696 37.214 82.063 37.1247C82.2608 36.9354 82.1911 36.5698 81.9667 36.4132C81.7422 36.2565 81.427 36.2837 81.1877 36.4164C80.9453 36.5508 80.7525 36.8166 80.7936 37.0907C80.8346 37.3648 81.1851 37.5694 81.4106 37.4083C81.5001 37.3444 81.6087 37.3142 81.7167 37.2842ZM84.5659 32.832C86.3179 32.4438 87.2972 32.493 88.8002 32.876L89.1171 32.9586C90.6168 33.3503 91.5536 33.352 93.4572 32.7349C93.6848 32.6611 93.9291 32.7858 94.0029 33.0134C94.0766 33.241 90.6031 34.228 89.0153 33.827L88.7226 33.7509C87.2607 33.3668 86.41 33.3109 84.7533 33.6779C84.5198 33.7297 84.2884 33.5823 84.2367 33.3487C84.1849 33.1151 84.3323 32.8838 84.5659 32.832ZM98.3268 28.6475C98.2211 28.4328 97.9615 28.3445 97.7468 28.4501C94.6638 29.9677 92.9555 30.1654 90.1442 29.8065L89.4347 29.7186C89.3539 29.7094 89.2828 29.702 89.208 29.6947L88.9548 29.6722C87.281 29.5406 85.9539 29.8246 84.251 30.8416C84.0456 30.9643 83.9785 31.2302 84.1012 31.4357C84.2239 31.6411 84.4899 31.7081 84.6953 31.5855C86.2797 30.6392 87.4493 30.4046 89.0128 30.5466C89.1164 30.5561 89.2029 30.5646 89.3032 30.5757L90.3429 30.7036C93.1358 31.0279 98.4324 28.8621 98.3268 28.6475ZM76.9382 32.7159C77.1768 32.6989 77.3841 32.8786 77.4011 33.1172C77.4181 33.3559 77.2384 33.5631 76.9997 33.5801C76.0122 33.6504 75.3319 33.9863 74.3107 34.8092L73.9415 35.1142L73.6792 35.3337C72.7791 36.0841 72.1796 36.4931 71.3844 36.8192C71.163 36.91 69.6342 37.2211 70.8192 36.5828C72.0041 35.9445 73.548 34.3139 73.548 34.3139L73.774 34.1289C74.92 33.2067 75.7397 32.8012 76.9382 32.7159ZM77.5882 34.7868C77.4943 34.5668 77.2398 34.4645 77.0197 34.5584C75.9322 35.0226 75.3201 35.6158 74.2911 36.9625L73.9734 37.3758C73.7653 37.6421 73.5908 37.9108 73.4214 38.1716C73.048 38.7467 72.6997 39.2831 72.0709 39.6699C71.1569 40.2321 72.463 39.9373 72.6668 39.812C73.4782 39.313 74.0047 38.7624 74.8259 37.6897L75.0643 37.3782C75.9557 36.2223 76.4762 35.7325 77.3598 35.3553C77.5799 35.2614 77.6821 35.0069 77.5882 34.7868Z"
    fill="#00160A" />
  <path fill-rule="evenodd" clip-rule="evenodd"
    d="M79.1059 33.4099C78.7515 33.0905 78.2367 32.9927 77.8905 32.6643C77.5624 32.353 77.4368 31.8455 77.582 31.4171C77.7271 30.9887 78.1354 30.6621 78.5851 30.6144C79.8753 30.4776 81.1655 30.3408 82.4557 30.204C82.7619 30.1716 83.1004 30.1472 83.3484 30.3297C83.7272 30.6083 83.6675 31.2172 83.3937 31.5994C83.1199 31.9817 82.698 32.228 82.3682 32.5631C81.943 32.9949 81.6772 33.5802 81.6317 34.1845C81.5979 34.6332 81.6468 35.168 81.2912 35.4437C80.8448 35.7898 80.1846 35.3808 79.9113 34.8864C79.638 34.3921 79.5256 33.7881 79.1059 33.4099H79.1059Z"
    fill="#FFB61D" />
  <path fill-rule="evenodd" clip-rule="evenodd"
    d="M131.422 94.5588C134.162 94.57 138.062 94.4715 140.054 92.5893C141.922 90.8247 142.572 88.6327 142.289 86.0792C142.005 83.5257 140.041 80.3793 139.966 77.8111C140.553 83.2931 148.34 84.8263 150.78 89.7702C152.099 92.4424 151.572 95.7392 150.104 98.3324C148.635 100.926 146.344 102.941 144.024 104.811C137.487 110.08 129.434 113.525 123.968 119.896C118.501 126.268 114.341 136.205 116.711 144.259C119.126 152.466 129.499 158.196 137.967 156.973C138.783 156.855 139.612 156.673 140.309 156.231C141.961 155.182 142.442 152.962 142.289 151.011C142.137 149.06 141.507 147.152 141.554 145.195C141.658 140.917 144.897 137.424 148.116 134.605C156.055 127.653 165.583 121.442 169.233 111.541C171.725 104.784 170.932 96.8988 167.146 90.7722C162.004 82.4529 152.114 77.8004 147.479 69.1888C147.342 70.9349 147.034 72.6676 146.56 74.354C146.358 75.0759 146.01 75.8998 145.279 76.0634C144.51 76.2352 153.091 64.0426 135.845 48.8396C129.433 43.1866 121.484 39.0819 113.537 35.522C110.814 44.1559 102.841 50.8937 93.8739 52.1395C93.2612 52.2247 93.1212 53.0376 93.1353 53.656C93.3297 62.1947 93.5241 70.7335 93.7185 79.2723C93.803 82.9824 93.5572 87.359 90.4516 89.3905C89.1712 90.2281 88.7744 92.1602 89.6211 93.4346C90.4678 94.7089 92.4028 95.0918 93.671 94.236C92.1995 91.7509 93.8821 88.0339 96.7204 87.4998C97.7661 87.3031 98.099 85.9942 98.2137 84.9364C98.7279 80.1936 99.2421 75.4509 99.7562 70.7081C99.9546 76.1189 100.153 81.5297 100.351 86.9404C105.619 84.5673 111.756 88.8324 117.416 87.6719C112.73 84.4255 108.406 80.2646 106.437 74.9153C104.468 69.5659 105.389 62.8704 109.774 59.2279C107.162 63.4006 106.646 68.8162 108.424 73.4067C110.138 77.8333 113.718 81.249 117.369 84.2822C118.5 85.2223 119.717 86.2443 120.067 87.6731C120.417 89.102 119.317 90.9293 117.869 90.6719C112.711 88.7322 107.124 87.9429 101.63 88.3779C99.9284 88.5126 98.1427 88.802 96.8163 89.8772C95.49 90.9523 94.855 93.0491 95.8816 94.4134C107.728 94.4619 119.575 94.5104 131.422 94.5588Z"
    fill="white" />
  <path fill-rule="evenodd" clip-rule="evenodd"
    d="M137.842 156.852C138.658 156.734 139.487 156.552 140.184 156.11C141.836 155.061 142.317 152.841 142.164 150.89C142.012 148.939 141.382 147.031 141.429 145.074C141.533 140.796 144.772 137.303 147.991 134.484C155.93 127.533 165.458 121.322 169.108 111.421C170.57 107.456 152.219 119.579 142.164 133.851C135.08 143.908 134.341 157.358 137.842 156.852Z"
    fill="#E7EAEE" />
  <path fill-rule="evenodd" clip-rule="evenodd"
    d="M144.592 58.2659C143.348 55.2703 139.881 52.3862 135.72 48.7185C129.307 43.0655 121.359 38.9608 113.412 35.4009C121.205 41.0776 130.705 45.8162 137.465 52.9409C140.76 56.4135 142.989 63.4118 144.851 65.6606C146.277 67.3823 148.14 66.8091 144.592 58.2659Z"
    fill="#E7EAEE" />
  <path fill-rule="evenodd" clip-rule="evenodd"
    d="M89.6804 57.0901C89.9631 56.4731 90.1619 53.6252 88.6731 53.6252C87.7445 54.6795 87.8398 56.7026 89.6804 57.0901Z"
    fill="#FFB61D" />
  <path fill-rule="evenodd" clip-rule="evenodd"
    d="M44.5163 63.8044C41.1364 64.6986 37.3387 65.3797 35.1938 68.1407C35.6592 68.4431 36.3012 68.2068 36.7023 67.8232C37.1033 67.4396 37.3655 66.9301 37.7615 66.5413C39.0178 65.308 41.5192 65.9603 42.0132 67.65C42.5764 66.9075 43.8096 67.3541 44.397 68.0776C44.9844 68.8011 45.3461 69.7618 46.1626 70.2109C46.8998 68.9777 48.2729 68.2475 49.6657 67.8952C51.0586 67.5428 52.5093 67.5104 53.9346 67.3298C56.3444 67.0246 58.699 66.2884 60.8535 65.1666C60.7225 65.4354 69.6492 61.5645 77.8178 61.0033C83.7829 60.5936 89.3929 63.3197 90.5332 63.9205C91.2858 59.4548 91.9897 54.6314 89.9485 50.5889C90.1153 52.4471 90.4325 54.2919 90.8961 56.0991C91.1668 57.1545 89.8726 58.1291 88.825 57.8299C87.7773 57.5307 87.1589 56.3814 87.1234 55.2924C87.0878 54.2034 87.5065 53.157 87.9181 52.1482C88.2397 51.36 88.5613 50.5718 88.8829 49.7836C89.0267 49.4312 89.1728 49.0672 89.1703 48.6866C89.1633 47.6055 88.0339 46.9174 87.0298 46.5168C85.1135 45.7523 83.1008 45.2299 81.0546 44.9661C80.5012 44.8948 79.8662 44.8679 79.4658 45.2565C74.2857 50.2843 67.7174 53.5899 61.2604 56.8178C55.8408 59.5271 50.3738 62.2545 44.5163 63.8044Z"
    fill="white" />
  <path fill-rule="evenodd" clip-rule="evenodd"
    d="M46.1624 70.2113C46.8996 68.9781 48.2727 68.2479 49.6655 67.8955C51.0584 67.5432 52.5091 67.5107 53.9344 67.3302C54.4905 67.2597 56.7743 66.8993 59.7386 65.8591C64.0247 64.3552 69.9084 61.9543 75.514 61.3435C82.8314 60.5462 89.3562 63.3008 90.533 63.9208C91.2856 59.4551 88.7402 59.9914 87.3737 59.8503C57.1624 56.7297 45.3459 69.7621 46.1624 70.2113Z"
    fill="#E7EAEE" />
</svg>