<svg xmlns="http://www.w3.org/2000/svg" viewBox="0 0 25 24">
  <path
    d="M12.4942 0.333374C6.04837 0.333374 0.833374 5.55421 0.833374 12C0.833374 18.4459 6.04837 23.6667 12.4942 23.6667C18.94 23.6667 24.1667 18.4459 24.1667 12C24.1667 5.55421 18.94 0.333374 12.4942 0.333374ZM12.5 21.3334C7.34337 21.3334 3.16671 17.1567 3.16671 12C3.16671 6.84337 7.34337 2.66671 12.5 2.66671C17.6567 2.66671 21.8334 6.84337 21.8334 12C21.8334 17.1567 17.6567 21.3334 12.5 21.3334Z"
  />
  <path
    d="M13.0834 6.16675H11.3334V13.1667L17.4525 16.8417L18.3334 15.4067L13.0834 12.2917V6.16675Z"
  />
</svg>