<svg xmlns="http://www.w3.org/2000/svg" viewBox="0 0 28 28">
  <path
    d="M13.9999 2.33337C7.55408 2.33337 2.33325 7.55421 2.33325 14C2.33325 20.4459 7.55408 25.6667 13.9999 25.6667C20.4458 25.6667 25.6666 20.4459 25.6666 14C25.6666 7.55421 20.4458 2.33337 13.9999 2.33337ZM13.9999 5.83337C15.9308 5.83337 17.4999 7.40254 17.4999 9.33337C17.4999 11.27 15.9308 12.8334 13.9999 12.8334C12.0691 12.8334 10.4999 11.27 10.4999 9.33337C10.4999 7.40254 12.0691 5.83337 13.9999 5.83337ZM13.9999 22.4C11.0774 22.4 8.51075 20.9067 6.99992 18.6434C7.02909 16.3275 11.6724 15.05 13.9999 15.05C16.3274 15.05 20.9649 16.3275 20.9999 18.6434C19.4891 20.9067 16.9224 22.4 13.9999 22.4Z"
  />
</svg>