<svg xmlns="http://www.w3.org/2000/svg" viewBox="0 0 29 29">
  <path
    d="M15.7699 8.6888H13.4365V13.3555H8.76986V15.6888H13.4365V20.3555H15.7699V15.6888H20.4365V13.3555H15.7699V8.6888ZM14.6032 2.85547C8.15736 2.85547 2.93652 8.0763 2.93652 14.5221C2.93652 20.968 8.15736 26.1888 14.6032 26.1888C21.049 26.1888 26.2699 20.968 26.2699 14.5221C26.2699 8.0763 21.049 2.85547 14.6032 2.85547ZM14.6032 23.8555C9.45819 23.8555 5.26986 19.6671 5.26986 14.5221C5.26986 9.37714 9.45819 5.1888 14.6032 5.1888C19.7482 5.1888 23.9365 9.37714 23.9365 14.5221C23.9365 19.6671 19.7482 23.8555 14.6032 23.8555Z"
  />
</svg>