<svg xmlns="http://www.w3.org/2000/svg" viewBox="0 0 28 28">
  <path
    d="M13.7668 12.7167C11.1185 12.0283 10.2668 11.3225 10.2668 10.2142C10.2668 8.9425 11.4393 8.05 13.4168 8.05C15.4935 8.05 16.2635 9.04167 16.3335 10.5H18.9118C18.836 8.4875 17.6052 6.65583 15.1668 6.055V3.5H11.6668V6.02C9.40351 6.51583 7.58351 7.97417 7.58351 10.2317C7.58351 12.9267 9.81768 14.2683 13.0668 15.05C15.9893 15.75 16.5668 16.7708 16.5668 17.8675C16.5668 18.6667 16.001 19.95 13.4168 19.95C11.0135 19.95 10.0627 18.8708 9.94018 17.5H7.36768C7.51351 20.055 9.42101 21.4842 11.6668 21.9683V24.5H15.1668V21.9917C17.436 21.5542 19.2502 20.2417 19.2502 17.8442C19.2502 14.5425 16.4152 13.4108 13.7668 12.7167Z"
  />
</svg>