<svg xmlns="http://www.w3.org/2000/svg" viewBox="0 0 28 28">
  <path
    d="M13.9999 2.33337C7.55408 2.33337 2.33325 7.55421 2.33325 14C2.33325 20.4459 7.55408 25.6667 13.9999 25.6667C20.4458 25.6667 25.6666 20.4459 25.6666 14C25.6666 7.55421 20.4458 2.33337 13.9999 2.33337ZM15.1666 22.1667H12.8333V19.8334H15.1666V22.1667ZM17.5758 13.1309L16.5316 14.2042C15.6916 15.0442 15.1666 15.75 15.1666 17.5H12.8333V16.9167C12.8333 15.6275 13.3583 14.4609 14.1983 13.615L15.6508 12.145C16.0708 11.725 16.3333 11.1417 16.3333 10.5C16.3333 9.21087 15.2891 8.16671 13.9999 8.16671C12.7108 8.16671 11.6666 9.21087 11.6666 10.5H9.33325C9.33325 7.92171 11.4216 5.83337 13.9999 5.83337C16.5783 5.83337 18.6666 7.92171 18.6666 10.5C18.6666 11.5267 18.2524 12.4542 17.5758 13.1309Z"
  />
</svg>