<svg xmlns="http://www.w3.org/2000/svg" viewBox="0 0 28 28">
  <path
    d="M15.1607 3.5C9.3565 3.5 4.6665 8.20167 4.6665 14H1.1665L5.71067 18.5442L5.79234 18.7133L10.4998 14H6.99984C6.99984 9.49083 10.6573 5.83333 15.1665 5.83333C19.6757 5.83333 23.3332 9.49083 23.3332 14C23.3332 18.5092 19.6757 22.1667 15.1665 22.1667C12.909 22.1667 10.8732 21.245 9.39734 19.7692L7.7465 21.42C9.64234 23.3217 12.2615 24.5 15.1607 24.5C20.9648 24.5 25.6665 19.7983 25.6665 14C25.6665 8.20167 20.9648 3.5 15.1607 3.5ZM13.9998 9.33333V15.1667L18.9932 18.13L19.8332 16.7125L15.7498 14.2917V9.33333H13.9998Z"
  />
</svg>