<svg xmlns="http://www.w3.org/2000/svg" viewBox="0 0 28 28">
  <path
    d="M12.834 19.8333H15.1673V12.8333H12.834V19.8333ZM14.0007 2.33325C7.55482 2.33325 2.33398 7.55408 2.33398 13.9999C2.33398 20.4458 7.55482 25.6666 14.0007 25.6666C20.4465 25.6666 25.6673 20.4458 25.6673 13.9999C25.6673 7.55408 20.4465 2.33325 14.0007 2.33325ZM14.0007 23.3333C8.85565 23.3333 4.66732 19.1449 4.66732 13.9999C4.66732 8.85492 8.85565 4.66659 14.0007 4.66659C19.1457 4.66659 23.334 8.85492 23.334 13.9999C23.334 19.1449 19.1457 23.3333 14.0007 23.3333ZM12.834 10.4999H15.1673V8.16658H12.834V10.4999Z"
  />
</svg>