<svg xmlns="http://www.w3.org/2000/svg" viewBox="0 0 20 20">
  <path fill-rule="evenodd" clip-rule="evenodd"
    d="M11.9169 8.38115L12.5772 6.92714L14.0241 6.2739L12.5772 5.62065L11.9169 4.16666L11.2707 5.62065L9.80966 6.2739L11.2707 6.92714L11.9169 8.38115ZM16.1312 7.67862C15.1127 7.67862 14.5438 8.69011 14.7756 9.44169L12.282 11.9423C12.0713 11.8791 11.7622 11.8791 11.5515 11.9423L9.76037 10.1511C9.99921 9.39952 9.43025 8.38102 8.40471 8.38102C7.38621 8.38102 6.81025 9.39252 7.04908 10.1511L3.84607 13.3471C3.09448 13.1153 2.08301 13.6842 2.08301 14.7027C2.08301 15.4754 2.71518 16.1076 3.48784 16.1076C4.50633 16.1076 5.07529 15.0961 4.84349 14.3445L8.03946 11.1415C8.25021 11.2047 8.55925 11.2047 8.77 11.1415L10.5611 12.9327C10.3223 13.6842 10.8912 14.7027 11.9168 14.7027C12.9353 14.7027 13.5112 13.6913 13.2725 12.9327L15.773 10.4391C16.5246 10.6709 17.5361 10.1019 17.5361 9.08344C17.5361 8.31077 16.9039 7.67862 16.1312 7.67862ZM4.19025 8.38102L3.83904 9.78586L3.48784 8.38102L2.08301 8.02982L3.48784 7.67862L3.83904 6.2738L4.19025 7.67862L5.59507 8.02982L4.19025 8.38102Z"
  />
</svg>