<svg xmlns="http://www.w3.org/2000/svg" viewBox="0 0 28 28">
  <path
    d="M24.9785 13.5102L14.4843 3.016C14.0585 2.596 13.4752 2.3335 12.8335 2.3335H4.66683C3.37766 2.3335 2.3335 3.37766 2.3335 4.66683V12.8335C2.3335 13.481 2.596 14.0643 3.02183 14.4843L13.5218 24.9843C13.9418 25.4043 14.5252 25.6668 15.1668 25.6668C15.8085 25.6668 16.3977 25.4043 16.8177 24.9843L24.9843 16.8177C25.4043 16.3918 25.6668 15.8085 25.6668 15.1668C25.6668 14.5193 25.4043 13.936 24.9785 13.5102ZM6.41683 8.16683C5.4485 8.16683 4.66683 7.38516 4.66683 6.41683C4.66683 5.4485 5.4485 4.66683 6.41683 4.66683C7.38516 4.66683 8.16683 5.4485 8.16683 6.41683C8.16683 7.38516 7.38516 8.16683 6.41683 8.16683Z"
  />
</svg>