<svg xmlns="http://www.w3.org/2000/svg" viewBox="0 0 28 28">
  <path
    d="M17.5 12.8334V5.83337L14 2.33337L10.5 5.83337V8.16671H3.5V24.5H24.5V12.8334H17.5ZM8.16667 22.1667H5.83333V19.8334H8.16667V22.1667ZM8.16667 17.5H5.83333V15.1667H8.16667V17.5ZM8.16667 12.8334H5.83333V10.5H8.16667V12.8334ZM15.1667 22.1667H12.8333V19.8334H15.1667V22.1667ZM15.1667 17.5H12.8333V15.1667H15.1667V17.5ZM15.1667 12.8334H12.8333V10.5H15.1667V12.8334ZM15.1667 8.16671H12.8333V5.83337H15.1667V8.16671ZM22.1667 22.1667H19.8333V19.8334H22.1667V22.1667ZM22.1667 17.5H19.8333V15.1667H22.1667V17.5Z"
  />
</svg>