<svg xmlns="http://www.w3.org/2000/svg" viewBox="0 0 28 28">
  <path
    d="M14 2.33337C7.55415 2.33337 2.33331 7.55421 2.33331 14C2.33331 20.4459 7.55415 25.6667 14 25.6667C20.4458 25.6667 25.6666 20.4459 25.6666 14C25.6666 7.55421 20.4458 2.33337 14 2.33337ZM15.6508 21.105V23.3334H12.5416V21.0817C10.5525 20.6559 8.84915 19.3784 8.72665 17.1092H11.0075C11.1241 18.3342 11.9641 19.285 14.0991 19.285C16.3916 19.285 16.8991 18.1417 16.8991 17.43C16.8991 16.4675 16.38 15.5517 13.79 14.9334C10.8966 14.2392 8.91331 13.0434 8.91331 10.6517C8.91331 8.65087 10.5291 7.34421 12.5416 6.90671V4.66671H15.6508V6.93587C17.8208 7.46671 18.9058 9.10587 18.9816 10.885H16.6833C16.6191 9.59004 15.9366 8.70921 14.0933 8.70921C12.3433 8.70921 11.2933 9.49671 11.2933 10.6284C11.2933 11.6142 12.0516 12.2442 14.4025 12.8567C16.7591 13.4692 19.2791 14.4725 19.2791 17.4184C19.2791 19.5475 17.6691 20.72 15.6508 21.105Z"
  />
</svg>