<svg xmlns="http://www.w3.org/2000/svg" viewBox="0 0 28 28">
  <path fill-rule="evenodd" clip-rule="evenodd"
    d="M22.7534 4.08368L21.0031 2.33337L19.2527 4.08368L17.5024 2.33337L15.7522 4.08368L14.0019 2.33337L12.2515 4.08368L10.5012 2.33337L8.75092 4.08368L7.00061 2.33337V18.6696H3.5V22.1702C3.5 24.1072 5.06361 25.6708 7.00061 25.6708H21.0031C22.94 25.6708 24.5037 24.1072 24.5037 22.1702V2.33337L22.7534 4.08368ZM17.5024 23.3371H7.00061C6.35883 23.3371 5.83374 22.8119 5.83374 22.1702V21.0033H17.5024V23.3371ZM22.1699 22.1702C22.1699 22.8119 21.6448 23.3371 21.0031 23.3371C20.3613 23.3371 19.8362 22.8119 19.8362 22.1702V18.6696H9.33438V5.83399H22.1699V22.1702ZM17.5023 8.16789H10.501V10.5016H17.5023V8.16789ZM18.6691 8.16789H21.0028V10.5016H18.6691V8.16789ZM17.5023 11.6685H10.501V14.0022H17.5023V11.6685ZM18.6691 11.6685H21.0028V14.0022H18.6691V11.6685Z"
  />
</svg>