<svg xmlns="http://www.w3.org/2000/svg" viewBox="0 0 28 28">
  <path
    d="M21 19.8334H7V17.5H21V19.8334ZM21 15.1667H7V12.8334H21V15.1667ZM21 10.5H7V8.16671H21V10.5ZM3.5 25.6667L5.25 23.9167L7 25.6667L8.75 23.9167L10.5 25.6667L12.25 23.9167L14 25.6667L15.75 23.9167L17.5 25.6667L19.25 23.9167L21 25.6667L22.75 23.9167L24.5 25.6667V2.33337L22.75 4.08337L21 2.33337L19.25 4.08337L17.5 2.33337L15.75 4.08337L14 2.33337L12.25 4.08337L10.5 2.33337L8.75 4.08337L7 2.33337L5.25 4.08337L3.5 2.33337V25.6667Z"
  />
</svg>