<svg xmlns="http://www.w3.org/2000/svg" viewBox="0 0 35 35">
  <path
    d="M22.1301 7.96341L15.6842 1.51758V5.86675C10.0955 6.56091 5.76758 11.3209 5.76758 17.1009C5.76758 22.8809 10.0955 27.6409 15.6842 28.3351V25.4734C11.668 24.8005 8.60091 21.3084 8.60091 17.1009C8.60091 12.8934 11.668 9.40133 15.6842 8.72841V14.2676L22.1301 7.96341ZM28.3351 15.6842C28.0942 13.7151 27.308 11.8167 26.033 10.1734L24.0284 12.178C24.7863 13.2476 25.268 14.4447 25.4734 15.6842H28.3351ZM18.5176 25.4663V28.3351C20.4867 28.0942 22.3992 27.3292 24.0426 26.0542L22.0097 24.0213C20.9472 24.7722 19.7572 25.2538 18.5176 25.4663ZM24.0284 22.0238L26.033 24.0284C27.308 22.3851 28.0942 20.4867 28.3351 18.5176H25.4734C25.268 19.7572 24.7863 20.9542 24.0284 22.0238Z"
  />
</svg>