<svg xmlns="http://www.w3.org/2000/svg" viewBox="0 0 35 35">
  <path
    d="M10.5352 12.178L8.5306 10.1734C7.2556 11.8167 6.46935 13.7151 6.22852 15.6842H9.09018C9.2956 14.4447 9.77727 13.2476 10.5352 12.178ZM9.09018 18.5176H6.22852C6.46935 20.4867 7.2556 22.3851 8.5306 24.0284L10.5352 22.0238C9.77727 20.9542 9.2956 19.7572 9.09018 18.5176ZM10.521 26.0472C12.1643 27.3292 14.0768 28.0872 16.046 28.328V25.4663C14.8064 25.2609 13.6164 24.7722 12.5539 24.0142L10.521 26.0472ZM18.8793 5.86675V1.51758L12.4335 7.96341L18.8793 14.2676V8.72841C22.8956 9.40133 25.9627 12.8934 25.9627 17.1009C25.9627 21.3084 22.8956 24.8005 18.8793 25.4734V28.3351C24.4681 27.6338 28.796 22.8809 28.796 17.1009C28.796 11.3209 24.4681 6.568 18.8793 5.86675Z"
  />
</svg>