<svg xmlns="http://www.w3.org/2000/svg" viewBox="0 0 28 28">
  <path
    d="M22.6683 15.1375C22.7149 14.7642 22.7499 14.385 22.7499 14C22.7499 13.615 22.7149 13.2359 22.6683 12.8625L25.1358 10.9317C25.3574 10.7567 25.4216 10.4417 25.2758 10.185L22.9424 6.14254C22.7966 5.89171 22.4933 5.78671 22.2308 5.89171L19.3258 7.06421C18.7249 6.60337 18.0658 6.21254 17.3541 5.91504L16.9166 2.82337C16.8641 2.54921 16.6249 2.33337 16.3333 2.33337H11.6666C11.3749 2.33337 11.1358 2.54921 11.0891 2.82337L10.6516 5.91504C9.93992 6.21254 9.28075 6.59754 8.67992 7.06421L5.77492 5.89171C5.51242 5.79254 5.20909 5.89171 5.06325 6.14254L2.72992 10.185C2.58409 10.4359 2.64825 10.7509 2.86992 10.9317L5.33159 12.8625C5.28492 13.2359 5.24992 13.615 5.24992 14C5.24992 14.385 5.28492 14.7642 5.33159 15.1375L2.86992 17.0684C2.64825 17.2434 2.58409 17.5584 2.72992 17.815L5.06325 21.8575C5.20909 22.1084 5.51242 22.2134 5.77492 22.1084L8.67992 20.9359C9.28075 21.3967 9.93992 21.7875 10.6516 22.085L11.0891 25.1767C11.1358 25.4509 11.3749 25.6667 11.6666 25.6667H16.3333C16.6249 25.6667 16.8641 25.4509 16.9108 25.1767L17.3483 22.085C18.0599 21.7875 18.7191 21.4025 19.3199 20.9359L22.2249 22.1084C22.4874 22.2075 22.7908 22.1084 22.9366 21.8575L25.2699 17.815C25.4158 17.5642 25.3516 17.2492 25.1299 17.0684L22.6683 15.1375V15.1375ZM13.9999 18.0834C11.7424 18.0834 9.91659 16.2575 9.91659 14C9.91659 11.7425 11.7424 9.91671 13.9999 9.91671C16.2574 9.91671 18.0833 11.7425 18.0833 14C18.0833 16.2575 16.2574 18.0834 13.9999 18.0834Z"
  />
</svg>