<svg xmlns="http://www.w3.org/2000/svg" viewBox="0 0 28 28">
  <path
    d="M8.16669 21C6.87752 21 5.84502 22.0442 5.84502 23.3334C5.84502 24.6225 6.87752 25.6667 8.16669 25.6667C9.45585 25.6667 10.5 24.6225 10.5 23.3334C10.5 22.0442 9.45585 21 8.16669 21ZM1.16669 2.33337V4.66671H3.50002L7.69419 13.5159L6.11919 16.3742C5.93835 16.7125 5.83335 17.0917 5.83335 17.5C5.83335 18.7892 6.87752 19.8334 8.16669 19.8334H22.1667V17.5H8.66252C8.49919 17.5 8.37085 17.3717 8.37085 17.2084C8.37085 17.1559 8.38252 17.1092 8.40585 17.0684L9.45002 15.1667H18.1417C19.0167 15.1667 19.7809 14.6825 20.1834 13.965L24.3542 6.39337C24.4475 6.23004 24.5 6.03754 24.5 5.83337C24.5 5.18587 23.975 4.66671 23.3334 4.66671H6.08419L4.97585 2.33337H1.16669ZM19.8334 21C18.5442 21 17.5117 22.0442 17.5117 23.3334C17.5117 24.6225 18.5442 25.6667 19.8334 25.6667C21.1225 25.6667 22.1667 24.6225 22.1667 23.3334C22.1667 22.0442 21.1225 21 19.8334 21Z"
  />
</svg>