<svg xmlns="http://www.w3.org/2000/svg" viewBox="0 0 20 20">
  <path
    d="M15.892 4.10832L14.717 5.28332C15.917 6.49166 16.667 8.15832 16.667 9.99999C16.667 13.6833 13.6837 16.6667 10.0003 16.6667C6.31699 16.6667 3.33366 13.6833 3.33366 9.99999C3.33366 6.59999 5.87533 3.79999 9.16699 3.39166V5.07499C6.80033 5.47499 5.00033 7.52499 5.00033 9.99999C5.00033 12.7583 7.24199 15 10.0003 15C12.7587 15 15.0003 12.7583 15.0003 9.99999C15.0003 8.61666 14.442 7.36666 13.5337 6.46666L12.3587 7.64166C12.9587 8.24999 13.3337 9.08332 13.3337 9.99999C13.3337 11.8417 11.842 13.3333 10.0003 13.3333C8.15866 13.3333 6.66699 11.8417 6.66699 9.99999C6.66699 8.44999 7.73366 7.15832 9.16699 6.78332V8.56666C8.66699 8.85832 8.33366 9.38332 8.33366 9.99999C8.33366 10.9167 9.08366 11.6667 10.0003 11.6667C10.917 11.6667 11.667 10.9167 11.667 9.99999C11.667 9.38332 11.3337 8.84999 10.8337 8.56666V1.66666H10.0003C5.40033 1.66666 1.66699 5.39999 1.66699 9.99999C1.66699 14.6 5.40033 18.3333 10.0003 18.3333C14.6003 18.3333 18.3337 14.6 18.3337 9.99999C18.3337 7.69999 17.4003 5.61666 15.892 4.10832Z"
  />
</svg>