<svg xmlns="http://www.w3.org/2000/svg" viewBox="0 0 35 35">
  <path
    d="M22.6986 19.9349H21.5794L21.1827 19.5524C22.5711 17.9374 23.4069 15.8407 23.4069 13.5599C23.4069 8.47406 19.2844 4.35156 14.1986 4.35156C9.11273 4.35156 4.99023 8.47406 4.99023 13.5599C4.99023 18.6457 9.11273 22.7682 14.1986 22.7682C16.4794 22.7682 18.5761 21.9324 20.1911 20.5441L20.5736 20.9407V22.0599L27.6569 29.1291L29.7677 27.0182L22.6986 19.9349ZM14.1986 19.9349C10.6711 19.9349 7.82357 17.0874 7.82357 13.5599C7.82357 10.0324 10.6711 7.1849 14.1986 7.1849C17.7261 7.1849 20.5736 10.0324 20.5736 13.5599C20.5736 17.0874 17.7261 19.9349 14.1986 19.9349ZM10.6569 12.8516H17.7402V14.2682H10.6569V12.8516Z"
  />
</svg>